<?xml version="1.0" encoding="utf-8"?>
<!-- Generator: Adobe Illustrator 17.1.0, SVG Export Plug-In . SVG Version: 6.00 Build 0)  -->
<!DOCTYPE svg PUBLIC "-//W3C//DTD SVG 1.1//EN" "http://www.w3.org/Graphics/SVG/1.1/DTD/svg11.dtd">
<svg version="1.1" id="Layer_1" xmlns="http://www.w3.org/2000/svg" xmlns:xlink="http://www.w3.org/1999/xlink" x="0px" y="0px"
	 viewBox="0 0 960.4 308.2" enable-background="new 0 0 960.4 308.2" xml:space="preserve">
<line fill="none" stroke="#231F20" stroke-miterlimit="10" x1="0.5" y1="0" x2="0.5" y2="17.8"/>
<line fill="none" stroke="#231F20" stroke-miterlimit="10" x1="262" y1="0" x2="262" y2="17.8"/>
<line fill="none" stroke="#231F20" stroke-miterlimit="10" x1="802.5" y1="0" x2="802.5" y2="17.8"/>
<g>
	<g>
		<path fill="#231F20" d="M23.9,22h-4.5v-0.7c1.2-1.3,1.9-2.1,2.2-2.6s0.6-0.9,0.8-1.4s0.3-1,0.3-1.4c0-0.5-0.1-0.8-0.4-1.1
			s-0.7-0.4-1.2-0.4c-0.4,0-0.9,0.1-1.6,0.4l-0.1-0.8c0.6-0.2,1.2-0.4,1.9-0.4c0.7,0,1.3,0.2,1.8,0.6s0.7,1,0.7,1.7
			c0,0.5-0.1,1-0.3,1.5s-0.5,1-0.9,1.4s-1.1,1.3-2.1,2.4h3.5V22z"/>
		<path fill="#231F20" d="M28.9,13.6c0.9,0,1.5,0.4,2,1.1s0.7,1.8,0.7,3.2c0,1.3-0.2,2.4-0.7,3.1s-1.1,1.2-2,1.2
			c-0.9,0-1.5-0.4-2-1.1s-0.7-1.8-0.7-3.2c0-1.3,0.2-2.4,0.7-3.1S28,13.6,28.9,13.6z M28.9,21.3c0.6,0,1-0.3,1.3-0.8
			s0.4-1.4,0.4-2.6c0-1.2-0.1-2.1-0.4-2.6s-0.7-0.8-1.3-0.8c-0.6,0-1,0.3-1.3,0.8s-0.4,1.4-0.4,2.6c0,1.2,0.1,2.1,0.4,2.6
			S28.4,21.3,28.9,21.3z M28.9,17c0.2,0,0.5,0.1,0.6,0.3s0.3,0.4,0.3,0.6c0,0.3-0.1,0.5-0.3,0.7s-0.4,0.3-0.6,0.3
			c-0.2,0-0.4-0.1-0.6-0.3s-0.3-0.4-0.3-0.7c0-0.2,0.1-0.5,0.2-0.6S28.7,17,28.9,17z"/>
		<path fill="#231F20" d="M36.6,15.1l-0.2,1.6h-0.5l-0.2-1.6v-1.4h0.9V15.1z"/>
	</g>
</g>
<g>
	<g>
		<path fill="#231F20" d="M283.1,15.1c0.2,0,0.3-0.1,0.5-0.1c0.5,0,0.8,0.1,1.1,0.4c0.3,0.3,0.4,0.6,0.4,1c0,0.4-0.2,0.8-0.5,1.1
			c-0.3,0.3-0.7,0.5-1.1,0.5c-0.4,0-0.8-0.1-1.1-0.2l0.1-0.5c0.3,0.1,0.6,0.2,1,0.2c0.3,0,0.5-0.1,0.7-0.3c0.2-0.2,0.3-0.5,0.3-0.8
			c0-0.3-0.1-0.6-0.3-0.7c-0.2-0.2-0.4-0.3-0.7-0.3c-0.2,0-0.4,0-0.6,0.1l-0.3-0.2v-2.3h2.2v0.5h-1.7V15.1z"/>
		<path fill="#231F20" d="M288.4,17.1c0.3-0.1,0.5-0.1,0.8-0.1c0.8,0,1.4,0.2,1.9,0.7s0.7,1.1,0.7,1.8c0,0.8-0.3,1.4-0.8,1.9
			s-1.2,0.8-1.9,0.8c-0.7,0-1.3-0.1-1.8-0.4l0.2-0.8c0.5,0.2,1.1,0.3,1.6,0.3c0.5,0,0.9-0.2,1.2-0.5s0.5-0.8,0.5-1.4
			c0-0.6-0.1-1-0.4-1.3s-0.7-0.4-1.1-0.4c-0.3,0-0.7,0.1-1,0.2l-0.6-0.3v-3.9h3.8v0.8h-2.9V17.1z"/>
		<path fill="#231F20" d="M295.2,17.7c0.5-0.4,1.1-0.6,1.7-0.6c0.7,0,1.3,0.2,1.7,0.7s0.7,1,0.7,1.7c0,0.8-0.2,1.4-0.6,1.9
			s-1,0.8-1.7,0.8c-0.9,0-1.6-0.4-2.1-1.2s-0.8-1.8-0.8-3c0-1.2,0.3-2.3,0.8-3.1s1.3-1.3,2.2-1.3c0.6,0,1.2,0.1,1.7,0.3l-0.2,0.9
			c-0.5-0.2-1-0.3-1.5-0.3c-0.6,0-1.1,0.3-1.5,0.9S295.2,16.7,295.2,17.7z M295.2,18.5c0,0.7,0.2,1.3,0.5,1.9s0.8,0.9,1.3,0.9
			c0.4,0,0.8-0.2,1-0.5s0.3-0.7,0.3-1.3c0-0.5-0.1-0.9-0.4-1.2s-0.6-0.4-1.1-0.4C296.2,17.9,295.7,18.1,295.2,18.5z"/>
	</g>
</g>
<g>
	<g>
		<path fill="#231F20" d="M401.6,102.3c0.1-0.1,0.2-0.2,0.3-0.3c0.2-0.2,0.4-0.4,0.6-0.2c0.1,0.1,1.4,1.3,3,1.3
			c1.4,0,2.4-0.9,2.4-1.9c0-1.2-1.1-1.9-3.1-2.8c-1.9-0.8-3.1-1.6-3.1-3.6c0-1.2,1-3.1,3.8-3.1c1.7,0,3,0.9,3,0.9
			c0.1,0.1,0.3,0.3,0.1,0.6c-0.1,0.1-0.1,0.2-0.2,0.3c-0.2,0.2-0.3,0.3-0.6,0.2c-0.1-0.1-1.2-0.8-2.3-0.8c-1.9,0-2.4,1.2-2.4,1.9
			c0,1.2,0.9,1.9,2.4,2.5c2.4,1,3.9,1.9,3.9,3.9c0,1.8-1.7,3.2-3.8,3.2c-2.1,0-3.5-1.2-3.7-1.4C401.5,102.8,401.4,102.6,401.6,102.3
			z"/>
		<path fill="#231F20" d="M418.8,91.7c1.8,0,3.1,0.6,4.3,1.6c0.1,0.1,0.2,0.4,0,0.5l-0.5,0.5c-0.1,0.2-0.3,0.2-0.5,0
			c-0.9-0.8-2.2-1.3-3.4-1.3c-2.8,0-4.9,2.3-4.9,5.1c0,2.7,2.1,5.1,4.9,5.1c1.5,0,2.4-0.6,3.4-1.3c0.2-0.1,0.3-0.1,0.4-0.1l0.5,0.5
			c0.1,0.1,0.1,0.4,0,0.5c-1.2,1.2-2.7,1.7-4.3,1.7c-3.5,0-6.4-2.8-6.4-6.3S415.3,91.7,418.8,91.7z"/>
		<path fill="#231F20" d="M426,103.7l5.4-11.9c0.1-0.1,0.1-0.2,0.3-0.2h0.2c0.2,0,0.2,0.1,0.3,0.2l5.3,11.9c0.1,0.2,0,0.5-0.3,0.5
			h-0.7c-0.2,0-0.3-0.1-0.3-0.2l-1.3-2.9h-6.3l-1.3,2.9c0,0.1-0.1,0.2-0.3,0.2h-0.7C426.1,104.2,425.9,103.9,426,103.7z M434.4,100
			c-0.9-1.9-1.7-3.9-2.6-5.8h-0.1l-2.6,5.8H434.4z"/>
		<path fill="#231F20" d="M441.1,92.2c0-0.2,0.1-0.3,0.3-0.3h0.7c0.2,0,0.3,0.2,0.3,0.3V103h5.1c0.2,0,0.3,0.2,0.3,0.3v0.5
			c0,0.2-0.1,0.3-0.3,0.3h-6.1c-0.2,0-0.3-0.2-0.3-0.3V92.2z"/>
		<path fill="#231F20" d="M451.4,92.2c0-0.2,0.1-0.3,0.3-0.3h6.9c0.2,0,0.3,0.2,0.3,0.3v0.5c0,0.2-0.1,0.3-0.3,0.3h-5.9v4.3h5.1
			c0.2,0,0.3,0.2,0.3,0.3v0.5c0,0.2-0.2,0.3-0.3,0.3h-5.1v4.5h5.9c0.2,0,0.3,0.2,0.3,0.3v0.5c0,0.2-0.1,0.3-0.3,0.3h-6.9
			c-0.2,0-0.3-0.2-0.3-0.3V92.2z"/>
		<path fill="#231F20" d="M470.1,94.4l-1.3,1c-0.1,0.1-0.3,0.1-0.4,0l-0.3-0.4c-0.1-0.1-0.1-0.3,0-0.4l2.5-2.4h0.5
			c0.2,0,0.3,0.2,0.3,0.3v11.3c0,0.2-0.1,0.3-0.3,0.3h-0.6c-0.2,0-0.3-0.2-0.3-0.3V94.4z"/>
		<path fill="#231F20" d="M475.9,97.9c0-0.6,0.5-1,1-1c0.6,0,1,0.4,1,1c0,0.5-0.4,1-1,1C476.4,98.9,475.9,98.5,475.9,97.9z
			 M476.9,102.3c0.6,0,1,0.4,1,1c0,0.5-0.4,1-1,1c-0.5,0-1-0.5-1-1C475.9,102.8,476.4,102.3,476.9,102.3z"/>
		<path fill="#231F20" d="M481.5,103.3c1.4-1.5,2.9-3.1,4.3-4.7c1.2-1.3,1.8-2.4,1.8-3.2c0-1-0.7-2.2-2.5-2.2c-1.1,0-2,0.7-2.5,1.3
			c-0.1,0.1-0.3,0.1-0.5,0l-0.4-0.3c-0.1-0.1-0.1-0.3,0-0.5c0,0,1.2-1.7,3.3-1.7c2.5,0,3.8,1.6,3.8,3.4c0,1.5-1,2.7-2.2,4
			c-1.1,1.2-2.3,2.4-3.4,3.6h5.2c0.2,0,0.3,0.2,0.3,0.3v0.5c0,0.2-0.2,0.3-0.3,0.3h-6.7c-0.2,0-0.3-0.2-0.3-0.3V103.3z"/>
		<path fill="#231F20" d="M491.4,101.1v-0.7l6.7-8.4c0.1-0.1,0.1-0.1,0.3-0.1h0.4c0.2,0,0.3,0.1,0.3,0.3l0,8h1.4
			c0.2,0,0.3,0.1,0.3,0.3v0.4c0,0.2-0.1,0.3-0.3,0.3H499v2.4c0,0.2-0.2,0.3-0.3,0.3h-0.6c-0.2,0-0.3-0.2-0.3-0.3v-2.4h-6
			C491.5,101.4,491.4,101.3,491.4,101.1z M497.8,100.4v-6.1l-5,6.1H497.8z"/>
		<path fill="#231F20" d="M510.1,98.2c0-3.9,1.5-6.2,4.3-6.2c2.7,0,4.3,2.3,4.3,6.2c0,3.9-1.5,6.2-4.3,6.2
			C511.7,104.3,510.1,102,510.1,98.2z M517.5,98.2c0-3.2-1.1-5-3-5c-1.9,0-3,1.8-3,5c0,3.2,1.1,5,3,5
			C516.4,103.2,517.5,101.4,517.5,98.2z"/>
		<path fill="#231F20" d="M522.9,98.2c0-3.9,1.5-6.2,4.3-6.2s4.3,2.3,4.3,6.2c0,3.9-1.5,6.2-4.3,6.2S522.9,102,522.9,98.2z
			 M530.2,98.2c0-3.2-1.1-5-3-5c-1.9,0-3,1.8-3,5c0,3.2,1.1,5,3,5C529.1,103.2,530.2,101.4,530.2,98.2z"/>
		<path fill="#231F20" d="M535.6,98.2c0-3.9,1.5-6.2,4.3-6.2s4.3,2.3,4.3,6.2c0,3.9-1.5,6.2-4.3,6.2S535.6,102,535.6,98.2z
			 M542.9,98.2c0-3.2-1.1-5-3-5c-1.9,0-3,1.8-3,5c0,3.2,1.1,5,3,5C541.8,103.2,542.9,101.4,542.9,98.2z"/>
	</g>
</g>
<g>
	<g>
		<path fill="#231F20" d="M349.7,272c1.8,0,3.1,0.6,4.3,1.6c0.1,0.1,0.2,0.4,0,0.5l-0.5,0.5c-0.1,0.2-0.3,0.2-0.5,0
			c-0.9-0.8-2.2-1.3-3.4-1.3c-2.8,0-4.9,2.3-4.9,5.1c0,2.7,2.1,5.1,4.9,5.1c1.5,0,2.4-0.6,3.4-1.3c0.2-0.1,0.3-0.1,0.4-0.1l0.5,0.5
			c0.1,0.1,0.1,0.4,0,0.5c-1.2,1.2-2.7,1.7-4.3,1.7c-3.5,0-6.4-2.8-6.4-6.3S346.2,272,349.7,272z"/>
		<path fill="#231F20" d="M363.4,272c3.5,0,6.3,2.8,6.3,6.4s-2.8,6.3-6.3,6.3s-6.3-2.8-6.3-6.3S359.8,272,363.4,272z M363.4,283.4
			c2.8,0,5.1-2.3,5.1-5.1s-2.3-5.1-5.1-5.1s-5.1,2.3-5.1,5.1S360.6,283.4,363.4,283.4z"/>
		<path fill="#231F20" d="M374,272.3c0-0.2,0.2-0.3,0.3-0.3h0.4l7.9,9.9c0,0,0,0,0,0v-9.4c0-0.2,0.1-0.3,0.3-0.3h0.6
			c0.2,0,0.3,0.2,0.3,0.3v11.9c0,0.2-0.2,0.3-0.3,0.3h-0.3l-8.1-10.1h0v9.6c0,0.2-0.1,0.3-0.3,0.3h-0.6c-0.2,0-0.3-0.2-0.3-0.3
			V272.3z"/>
		<path fill="#231F20" d="M391,273.4H388c-0.2,0-0.3-0.2-0.3-0.3v-0.5c0-0.2,0.1-0.3,0.3-0.3h7.5c0.2,0,0.3,0.2,0.3,0.3v0.5
			c0,0.2-0.1,0.3-0.3,0.3h-3.1v10.8c0,0.2-0.2,0.3-0.3,0.3h-0.7c-0.2,0-0.3-0.2-0.3-0.3V273.4z"/>
		<path fill="#231F20" d="M404.1,272c3.5,0,6.3,2.8,6.3,6.4s-2.8,6.3-6.3,6.3s-6.3-2.8-6.3-6.3S400.6,272,404.1,272z M404.1,283.4
			c2.8,0,5.1-2.3,5.1-5.1s-2.3-5.1-5.1-5.1s-5.1,2.3-5.1,5.1S401.3,283.4,404.1,283.4z"/>
		<path fill="#231F20" d="M414.8,272.5c0-0.2,0.1-0.3,0.3-0.3h4.6c2.1,0,3.8,1.7,3.8,3.8c0,1.6-1.1,3-2.6,3.6l2.4,4.5
			c0.1,0.2,0,0.5-0.3,0.5h-0.9c-0.2,0-0.2-0.1-0.3-0.2l-2.3-4.7h-3.4v4.5c0,0.2-0.2,0.3-0.3,0.3h-0.7c-0.2,0-0.3-0.2-0.3-0.3V272.5z
			 M419.6,278.5c1.4,0,2.5-1.1,2.5-2.6c0-1.3-1.2-2.5-2.5-2.5h-3.4v5.1H419.6z"/>
		<path fill="#231F20" d="M433.8,272.5c0-0.2,0.2-0.3,0.3-0.3h0.7c0.2,0,0.3,0.2,0.3,0.3v11.7c0,0.2-0.2,0.3-0.3,0.3h-0.7
			c-0.2,0-0.3-0.2-0.3-0.3V272.5z"/>
		<path fill="#231F20" d="M440.3,272.3c0-0.2,0.2-0.3,0.3-0.3h0.4l7.9,9.9c0,0,0,0,0,0v-9.4c0-0.2,0.1-0.3,0.3-0.3h0.6
			c0.2,0,0.3,0.2,0.3,0.3v11.9c0,0.2-0.2,0.3-0.3,0.3h-0.3l-8.1-10.1h0v9.6c0,0.2-0.1,0.3-0.3,0.3h-0.6c-0.2,0-0.3-0.2-0.3-0.3
			V272.3z"/>
		<path fill="#231F20" d="M457.3,273.4h-3.1c-0.2,0-0.3-0.2-0.3-0.3v-0.5c0-0.2,0.1-0.3,0.3-0.3h7.5c0.2,0,0.3,0.2,0.3,0.3v0.5
			c0,0.2-0.1,0.3-0.3,0.3h-3.1v10.8c0,0.2-0.2,0.3-0.3,0.3h-0.7c-0.2,0-0.3-0.2-0.3-0.3V273.4z"/>
		<path fill="#231F20" d="M465.6,272.5c0-0.2,0.1-0.3,0.3-0.3h6.9c0.2,0,0.3,0.2,0.3,0.3v0.5c0,0.2-0.1,0.3-0.3,0.3H467v4.3h5.1
			c0.2,0,0.3,0.2,0.3,0.3v0.5c0,0.2-0.2,0.3-0.3,0.3H467v4.5h5.9c0.2,0,0.3,0.2,0.3,0.3v0.5c0,0.2-0.1,0.3-0.3,0.3H466
			c-0.2,0-0.3-0.2-0.3-0.3V272.5z"/>
		<path fill="#231F20" d="M477.3,272.5c0-0.2,0.1-0.3,0.3-0.3h4.6c2.1,0,3.8,1.7,3.8,3.8c0,1.6-1.1,3-2.6,3.6l2.4,4.5
			c0.1,0.2,0,0.5-0.3,0.5h-0.9c-0.2,0-0.2-0.1-0.3-0.2l-2.3-4.7h-3.4v4.5c0,0.2-0.2,0.3-0.3,0.3h-0.7c-0.2,0-0.3-0.2-0.3-0.3V272.5z
			 M482.1,278.5c1.4,0,2.5-1.1,2.5-2.6c0-1.3-1.2-2.5-2.5-2.5h-3.4v5.1H482.1z"/>
		<path fill="#231F20" d="M488.8,272.6c-0.1-0.2,0-0.5,0.3-0.5h0.7c0.2,0,0.3,0.1,0.3,0.2l4.4,9.9h0.1l4.4-9.9
			c0-0.1,0.2-0.2,0.3-0.2h0.7c0.3,0,0.4,0.2,0.3,0.5l-5.4,11.9c-0.1,0.1-0.2,0.2-0.3,0.2h-0.2c-0.1,0-0.2-0.1-0.3-0.2L488.8,272.6z"
			/>
		<path fill="#231F20" d="M501.2,284l5.4-11.9c0.1-0.1,0.1-0.2,0.3-0.2h0.2c0.2,0,0.2,0.1,0.3,0.2l5.3,11.9c0.1,0.2,0,0.5-0.3,0.5
			h-0.7c-0.2,0-0.3-0.1-0.3-0.2l-1.3-2.9h-6.3l-1.3,2.9c0,0.1-0.1,0.2-0.3,0.2h-0.7C501.3,284.5,501.1,284.3,501.2,284z
			 M509.6,280.3c-0.9-1.9-1.7-3.9-2.6-5.8h-0.1l-2.6,5.8H509.6z"/>
		<path fill="#231F20" d="M516.3,272.5c0-0.2,0.1-0.3,0.3-0.3h0.7c0.2,0,0.3,0.2,0.3,0.3v10.8h5.1c0.2,0,0.3,0.2,0.3,0.3v0.5
			c0,0.2-0.1,0.3-0.3,0.3h-6.1c-0.2,0-0.3-0.2-0.3-0.3V272.5z"/>
		<path fill="#231F20" d="M531.3,283.6c1.4-1.5,2.9-3.1,4.3-4.7c1.2-1.3,1.8-2.4,1.8-3.2c0-1-0.7-2.2-2.5-2.2c-1.1,0-2,0.7-2.5,1.3
			c-0.1,0.1-0.3,0.1-0.5,0l-0.4-0.3c-0.1-0.1-0.1-0.3,0-0.5c0,0,1.2-1.7,3.3-1.7c2.5,0,3.8,1.6,3.8,3.4c0,1.5-1,2.7-2.2,4
			c-1.1,1.2-2.3,2.4-3.4,3.6h5.2c0.2,0,0.3,0.2,0.3,0.3v0.5c0,0.2-0.2,0.3-0.3,0.3h-6.7c-0.2,0-0.3-0.2-0.3-0.3V283.6z"/>
		<path fill="#231F20" d="M542.3,278.5c0-3.9,1.5-6.2,4.3-6.2s4.3,2.3,4.3,6.2c0,3.9-1.5,6.2-4.3,6.2S542.3,282.4,542.3,278.5z
			 M549.7,278.5c0-3.2-1.1-5-3-5c-1.9,0-3,1.8-3,5c0,3.2,1.1,5,3,5C548.6,283.5,549.7,281.7,549.7,278.5z"/>
		<path fill="#231F20" d="M561.4,272.5c0-0.2,0.1-0.3,0.3-0.3h6.9c0.2,0,0.3,0.2,0.3,0.3v0.5c0,0.2-0.1,0.3-0.3,0.3h-5.9v4.8h5.1
			c0.2,0,0.3,0.2,0.3,0.3v0.5c0,0.2-0.2,0.3-0.3,0.3h-5.1v4.8c0,0.2-0.2,0.3-0.3,0.3h-0.7c-0.2,0-0.3-0.2-0.3-0.3V272.5z"/>
		<path fill="#231F20" d="M572.8,272.5c0-0.2,0.1-0.3,0.3-0.3h6.9c0.2,0,0.3,0.2,0.3,0.3v0.5c0,0.2-0.1,0.3-0.3,0.3h-5.9v4.3h5.1
			c0.2,0,0.3,0.2,0.3,0.3v0.5c0,0.2-0.2,0.3-0.3,0.3h-5.1v4.5h5.9c0.2,0,0.3,0.2,0.3,0.3v0.5c0,0.2-0.1,0.3-0.3,0.3h-6.9
			c-0.2,0-0.3-0.2-0.3-0.3V272.5z"/>
		<path fill="#231F20" d="M584.5,272.5c0-0.2,0.1-0.3,0.3-0.3h6.9c0.2,0,0.3,0.2,0.3,0.3v0.5c0,0.2-0.1,0.3-0.3,0.3h-5.9v4.3h5.1
			c0.2,0,0.3,0.2,0.3,0.3v0.5c0,0.2-0.2,0.3-0.3,0.3h-5.1v4.5h5.9c0.2,0,0.3,0.2,0.3,0.3v0.5c0,0.2-0.1,0.3-0.3,0.3h-6.9
			c-0.2,0-0.3-0.2-0.3-0.3V272.5z"/>
		<path fill="#231F20" d="M598.7,273.4h-3.1c-0.2,0-0.3-0.2-0.3-0.3v-0.5c0-0.2,0.1-0.3,0.3-0.3h7.5c0.2,0,0.3,0.2,0.3,0.3v0.5
			c0,0.2-0.1,0.3-0.3,0.3H600v10.8c0,0.2-0.2,0.3-0.3,0.3H599c-0.2,0-0.3-0.2-0.3-0.3V273.4z"/>
		<path fill="#231F20" d="M391.4,297.3h1.6c1.1,0,1.9,0.4,2.6,1.1s1,1.7,1,3c0,1.3-0.3,2.3-1,3s-1.5,1.1-2.5,1.1h-1.7V297.3z
			 M392.4,304.7h0.7c0.8,0,1.4-0.3,1.9-0.9s0.7-1.4,0.7-2.4c0-1-0.2-1.8-0.7-2.4s-1.1-0.9-1.9-0.9h-0.7V304.7z"/>
		<path fill="#231F20" d="M404.3,305.6h-1l-0.9-2.9h-2.7l-0.9,2.9h-1l2.7-8.3h1.2L404.3,305.6z M402.1,301.8l-1.1-3.4l-1.1,3.4
			H402.1z"/>
		<path fill="#231F20" d="M411.2,298.1h-2.5v7.5h-1v-7.5h-2.6v-0.8h6.1V298.1z"/>
		<path fill="#231F20" d="M417.8,303c0,1-0.2,1.7-0.6,2.1s-1,0.7-1.8,0.7c-1.6,0-2.4-0.9-2.4-2.7v-5.7h1v5.6c0,1.3,0.5,2,1.4,2
			c0.5,0,0.8-0.2,1.1-0.5s0.3-0.8,0.3-1.5v-5.6h1V303z"/>
		<path fill="#231F20" d="M425.3,305.6h-0.9v-7.1l-1.2,3.4h-0.9l-1.2-3.4v7.1H420v-8.3h1.2l1.4,3.8l1.4-3.8h1.2V305.6z"/>
		<path fill="#231F20" d="M438.8,305.6h-3.8v-0.8h1.4v-6.6h-1.4v-0.8h3.8v0.8h-1.4v6.6h1.4V305.6z"/>
		<path fill="#231F20" d="M446,298.2c-0.5-0.2-1-0.3-1.4-0.3c-0.5,0-0.9,0.1-1.2,0.3s-0.5,0.6-0.5,1c0,0.5,0.4,0.9,1.2,1.3
			c0.6,0.3,1,0.5,1.2,0.6s0.4,0.3,0.6,0.5s0.4,0.4,0.5,0.7s0.2,0.6,0.2,0.9c0,0.8-0.3,1.4-0.8,1.9s-1.2,0.7-1.9,0.7
			c-0.7,0-1.3-0.1-1.9-0.4l0.2-0.8c0.6,0.3,1.2,0.4,1.6,0.4c0.5,0,1-0.1,1.3-0.4s0.5-0.7,0.5-1.2c0-0.4-0.1-0.7-0.3-0.9
			s-0.6-0.5-1.2-0.8c-0.6-0.3-1-0.5-1.2-0.6s-0.3-0.2-0.5-0.4s-0.3-0.4-0.4-0.6s-0.1-0.5-0.1-0.7c0-0.7,0.2-1.2,0.7-1.6
			s1.1-0.6,1.9-0.6c0.6,0,1.1,0.1,1.6,0.3L446,298.2z"/>
		<path fill="#231F20" d="M461.3,305.6h-0.9v-7.1l-1.2,3.4h-0.9l-1.2-3.4v7.1H456v-8.3h1.2l1.4,3.8l1.4-3.8h1.2V305.6z"/>
		<path fill="#231F20" d="M468,305.6h-4.3v-8.3h4.3v0.8h-3.3v2.6h3.2v0.8h-3.2v3.2h3.4V305.6z"/>
		<path fill="#231F20" d="M476.3,305.6h-1l-0.9-2.9h-2.7l-0.9,2.9h-1l2.7-8.3h1.2L476.3,305.6z M474.1,301.8l-1.1-3.4l-1.1,3.4
			H474.1z"/>
		<path fill="#231F20" d="M482.7,305.6h-1.1l-3-6.5v6.5h-1v-8.3h1.1l3,6.5v-6.5h0.9V305.6z"/>
		<path fill="#231F20" d="M496.4,298.2c-0.5-0.2-1-0.3-1.4-0.3c-0.5,0-0.9,0.1-1.2,0.3s-0.5,0.6-0.5,1c0,0.5,0.4,0.9,1.2,1.3
			c0.6,0.3,1,0.5,1.2,0.6s0.4,0.3,0.6,0.5s0.4,0.4,0.5,0.7s0.2,0.6,0.2,0.9c0,0.8-0.3,1.4-0.8,1.9s-1.2,0.7-1.9,0.7
			c-0.7,0-1.3-0.1-1.9-0.4l0.2-0.8c0.6,0.3,1.2,0.4,1.6,0.4c0.5,0,1-0.1,1.3-0.4s0.5-0.7,0.5-1.2c0-0.4-0.1-0.7-0.3-0.9
			s-0.6-0.5-1.2-0.8c-0.6-0.3-1-0.5-1.2-0.6s-0.3-0.2-0.5-0.4s-0.3-0.4-0.4-0.6s-0.1-0.5-0.1-0.7c0-0.7,0.2-1.2,0.7-1.6
			s1.1-0.6,1.9-0.6c0.6,0,1.1,0.1,1.6,0.3L496.4,298.2z"/>
		<path fill="#231F20" d="M504,305.6h-4.3v-8.3h4.3v0.8h-3.3v2.6h3.2v0.8h-3.2v3.2h3.4V305.6z"/>
		<path fill="#231F20" d="M512.3,305.6h-1l-0.9-2.9h-2.7l-0.9,2.9h-1l2.7-8.3h1.2L512.3,305.6z M510.1,301.8l-1.1-3.4l-1.1,3.4
			H510.1z"/>
		<path fill="#231F20" d="M525.8,305.6h-4.5v-8.3h1v7.4h3.5V305.6z"/>
		<path fill="#231F20" d="M532.8,305.6h-4.3v-8.3h4.3v0.8h-3.3v2.6h3.2v0.8h-3.2v3.2h3.4V305.6z"/>
		<path fill="#231F20" d="M541.1,297.3l-2.7,8.3h-1.2l-2.7-8.3h1l2.3,7.2l2.3-7.2H541.1z"/>
		<path fill="#231F20" d="M547.2,305.6h-4.3v-8.3h4.3v0.8h-3.3v2.6h3.2v0.8h-3.2v3.2h3.4V305.6z"/>
		<path fill="#231F20" d="M554.6,305.6h-4.5v-8.3h1v7.4h3.5V305.6z"/>
	</g>
</g>
<g>
	<g>
		<path fill="#231F20" d="M816.5,15.1c0.2,0,0.3-0.1,0.5-0.1c0.5,0,0.8,0.1,1.1,0.4c0.3,0.3,0.4,0.6,0.4,1c0,0.4-0.2,0.8-0.5,1.1
			c-0.3,0.3-0.7,0.5-1.1,0.5c-0.4,0-0.8-0.1-1.1-0.2l0.1-0.5c0.3,0.1,0.6,0.2,1,0.2c0.3,0,0.5-0.1,0.7-0.3c0.2-0.2,0.3-0.5,0.3-0.8
			c0-0.3-0.1-0.6-0.3-0.7c-0.2-0.2-0.4-0.3-0.7-0.3c-0.2,0-0.4,0-0.6,0.1l-0.3-0.2v-2.3h2.2v0.5h-1.7V15.1z"/>
		<path fill="#231F20" d="M821.8,17.1c0.3-0.1,0.5-0.1,0.8-0.1c0.8,0,1.4,0.2,1.9,0.7s0.7,1.1,0.7,1.8c0,0.8-0.3,1.4-0.8,1.9
			s-1.2,0.8-1.9,0.8c-0.7,0-1.3-0.1-1.8-0.4l0.2-0.8c0.5,0.2,1.1,0.3,1.6,0.3c0.5,0,0.9-0.2,1.2-0.5s0.5-0.8,0.5-1.4
			c0-0.6-0.1-1-0.4-1.3s-0.7-0.4-1.1-0.4c-0.3,0-0.7,0.1-1,0.2l-0.6-0.3v-3.9h3.8v0.8h-2.9V17.1z"/>
		<path fill="#231F20" d="M830.9,17.5c0.6,0.2,1,0.4,1.3,0.8s0.5,0.9,0.5,1.4c0,0.8-0.3,1.4-0.8,1.8s-1.1,0.7-1.9,0.7
			c-0.8,0-1.4-0.2-1.9-0.7s-0.7-1-0.7-1.8c0-0.5,0.2-1,0.5-1.4s0.8-0.7,1.3-0.8c-0.5-0.1-0.8-0.3-1.1-0.7s-0.4-0.7-0.4-1.1
			c0-0.5,0.2-1,0.6-1.4s1-0.6,1.7-0.6c0.7,0,1.2,0.2,1.7,0.6s0.7,0.9,0.7,1.4c0,0.4-0.1,0.8-0.4,1.1S831.3,17.3,830.9,17.5z
			 M830,17.9c-1.1,0.3-1.6,0.9-1.6,1.8c0,0.5,0.2,0.9,0.5,1.2s0.7,0.5,1.1,0.5c0.5,0,0.8-0.1,1.1-0.4s0.5-0.7,0.5-1.2
			c0-0.4-0.1-0.7-0.3-1S830.7,18.1,830,17.9z M830,17.1c0,0,0.1,0,0.3-0.1s0.3-0.1,0.4-0.2s0.2-0.2,0.3-0.3s0.2-0.2,0.2-0.4
			s0.1-0.3,0.1-0.5c0-0.4-0.1-0.7-0.4-0.9s-0.6-0.4-1-0.4c-0.4,0-0.7,0.1-1,0.4s-0.4,0.6-0.4,0.9c0,0.2,0,0.4,0.1,0.6
			s0.2,0.3,0.4,0.4s0.3,0.2,0.5,0.2S830,17.1,830,17.1z"/>
	</g>
</g>
<g>
	<g>
		<path fill="#231F20" d="M930.3,25H926v-0.8h1.8v-6.4l-1.7,0.8v-1l1.8-0.9h0.8v7.5h1.6V25z"/>
		<path fill="#231F20" d="M937.6,17.4l-3.3,7.6h-1l3.2-7.4h-3.9v-0.8h4.9V17.4z"/>
		<path fill="#231F20" d="M942.8,18.1l-0.2,1.6h-0.5l-0.2-1.6v-1.4h0.9V18.1z"/>
		<path fill="#231F20" d="M950.1,20.6c0.5,0.1,0.9,0.4,1.2,0.8s0.5,0.8,0.5,1.3c0,0.7-0.3,1.3-0.8,1.8s-1.2,0.7-2,0.7
			c-0.7,0-1.2-0.1-1.8-0.4l0.2-0.8c0.5,0.3,1.1,0.4,1.6,0.4c0.5,0,0.9-0.2,1.3-0.5s0.5-0.7,0.5-1.2c0-0.5-0.2-0.9-0.6-1.2
			s-0.9-0.5-1.5-0.5h-0.3v-0.8h0.1c0.6,0,1.1-0.1,1.5-0.4s0.6-0.7,0.6-1.1c0-0.4-0.1-0.7-0.4-0.9s-0.7-0.3-1.2-0.3
			c-0.4,0-0.9,0.1-1.4,0.3l-0.1-0.8c0.5-0.2,1.1-0.4,1.6-0.4c0.7,0,1.3,0.2,1.8,0.6s0.7,0.9,0.7,1.5c0,0.4-0.1,0.8-0.4,1.2
			S950.5,20.4,950.1,20.6L950.1,20.6z"/>
		<path fill="#231F20" d="M956.7,16.6c0.9,0,1.5,0.4,2,1.1s0.7,1.8,0.7,3.2c0,1.3-0.2,2.4-0.7,3.1s-1.1,1.2-2,1.2
			c-0.9,0-1.5-0.4-2-1.1s-0.7-1.8-0.7-3.2c0-1.3,0.2-2.4,0.7-3.1S955.9,16.6,956.7,16.6z M956.7,24.3c0.6,0,1-0.3,1.3-0.8
			s0.4-1.4,0.4-2.6c0-1.2-0.1-2.1-0.4-2.6s-0.7-0.8-1.3-0.8c-0.6,0-1,0.3-1.3,0.8s-0.4,1.4-0.4,2.6c0,1.2,0.1,2.1,0.4,2.6
			S956.2,24.3,956.7,24.3z M956.7,20c0.2,0,0.5,0.1,0.6,0.3s0.3,0.4,0.3,0.6c0,0.3-0.1,0.5-0.3,0.7s-0.4,0.3-0.6,0.3
			c-0.2,0-0.4-0.1-0.6-0.3s-0.3-0.4-0.3-0.7c0-0.2,0.1-0.5,0.2-0.6S956.5,20,956.7,20z"/>
	</g>
</g>
<g>
	<g>
		<g>
			<path fill="#231F20" d="M36.4,137.9H32V137h1.8v-6.4l-1.7,0.8v-1l1.8-0.9h0.8v7.5h1.6V137.9z"/>
		</g>
	</g>
	<g>
		<g>
			<path fill="#231F20" d="M497,129.4c0.9,0,1.5,0.4,2,1.1s0.7,1.8,0.7,3.2c0,1.3-0.2,2.4-0.7,3.1s-1.1,1.2-2,1.2
				c-0.9,0-1.5-0.4-2-1.1s-0.7-1.8-0.7-3.2c0-1.3,0.2-2.4,0.7-3.1S496.1,129.4,497,129.4z M497,137.2c0.6,0,1-0.3,1.3-0.8
				s0.4-1.4,0.4-2.6c0-1.2-0.1-2.1-0.4-2.6s-0.7-0.8-1.3-0.8c-0.6,0-1,0.3-1.3,0.8s-0.4,1.4-0.4,2.6c0,1.2,0.1,2.1,0.4,2.6
				S496.4,137.2,497,137.2z M497,132.9c0.2,0,0.5,0.1,0.6,0.3s0.3,0.4,0.3,0.6c0,0.3-0.1,0.5-0.3,0.7s-0.4,0.3-0.6,0.3
				c-0.2,0-0.4-0.1-0.6-0.3s-0.3-0.4-0.3-0.7c0-0.2,0.1-0.5,0.2-0.6S496.7,132.9,497,132.9z"/>
		</g>
	</g>
	<g>
		<rect x="32.4" y="141.7" fill="none" stroke="#231F20" stroke-miterlimit="10" width="45" height="7.5"/>
		<rect x="122.4" y="141.7" fill="none" stroke="#231F20" stroke-miterlimit="10" width="45" height="7.5"/>
		<rect x="212.4" y="141.7" fill="none" stroke="#231F20" stroke-miterlimit="10" width="45" height="7.5"/>
		<rect x="302.4" y="141.7" fill="none" stroke="#231F20" stroke-miterlimit="10" width="45" height="7.5"/>
		<rect x="392.4" y="141.7" fill="none" stroke="#231F20" stroke-miterlimit="10" width="45" height="7.5"/>
		<rect x="482.4" y="141.7" fill="none" stroke="#231F20" stroke-miterlimit="10" width="433" height="7.5"/>
		<line fill="none" stroke="#231F20" stroke-miterlimit="10" x1="32.4" y1="145.5" x2="915.4" y2="145.5"/>
		<rect x="77.4" y="141.7" fill="#FFFFFF" stroke="#231F20" stroke-miterlimit="10" width="45" height="7.5"/>
		<rect x="167.4" y="141.7" fill="#FFFFFF" stroke="#231F20" stroke-miterlimit="10" width="45" height="7.5"/>
		<rect x="257.4" y="141.7" fill="#FFFFFF" stroke="#231F20" stroke-miterlimit="10" width="45" height="7.5"/>
		<rect x="347.4" y="141.7" fill="#FFFFFF" stroke="#231F20" stroke-miterlimit="10" width="45" height="7.5"/>
		<rect x="437.4" y="141.7" fill="#FFFFFF" stroke="#231F20" stroke-miterlimit="10" width="45" height="7.5"/>
	</g>
	<g>
		<g>
			<g>
				<path fill="#231F20" d="M274.5,127.2h-3.6v-0.7h1.5v-5.4l-1.4,0.7V121l1.5-0.8h0.7v6.2h1.4V127.2z"/>
			</g>
		</g>
		<g>
			<g>
				<path fill="#231F20" d="M274.4,138.3h-3.8v-0.6c1-1.1,1.6-1.8,1.9-2.2s0.5-0.7,0.7-1.1s0.3-0.8,0.3-1.2c0-0.4-0.1-0.7-0.3-0.9
					c-0.2-0.2-0.6-0.3-1-0.3c-0.3,0-0.8,0.1-1.3,0.3l-0.1-0.7c0.5-0.2,1-0.3,1.5-0.3c0.6,0,1.1,0.2,1.5,0.5c0.4,0.3,0.6,0.8,0.6,1.4
					c0,0.4-0.1,0.8-0.3,1.2c-0.2,0.4-0.4,0.8-0.7,1.2s-0.9,1-1.8,2h2.9V138.3z"/>
			</g>
		</g>
		<line fill="none" stroke="#231F20" stroke-width="0.7406" stroke-miterlimit="10" x1="269.1" y1="129.1" x2="276.4" y2="129.1"/>
	</g>
</g>
<g>
	<g>
		<g>
			<path fill="#231F20" d="M119,176.3h-4.3v-0.8h1.8V169l-1.7,0.8v-1l1.8-0.9h0.8v7.5h1.6V176.3z"/>
			<path fill="#231F20" d="M123.9,167.9c0.9,0,1.5,0.4,2,1.1s0.7,1.8,0.7,3.2c0,1.3-0.2,2.4-0.7,3.1s-1.1,1.2-2,1.2
				c-0.9,0-1.5-0.4-2-1.1s-0.7-1.8-0.7-3.2c0-1.3,0.2-2.4,0.7-3.1S123,167.9,123.9,167.9z M123.9,175.6c0.6,0,1-0.3,1.3-0.8
				s0.4-1.4,0.4-2.6c0-1.2-0.1-2.1-0.4-2.6s-0.7-0.8-1.3-0.8c-0.6,0-1,0.3-1.3,0.8s-0.4,1.4-0.4,2.6c0,1.2,0.1,2.1,0.4,2.6
				S123.3,175.6,123.9,175.6z M123.8,171.3c0.2,0,0.5,0.1,0.6,0.3s0.3,0.4,0.3,0.6c0,0.3-0.1,0.5-0.3,0.7s-0.4,0.3-0.6,0.3
				c-0.2,0-0.4-0.1-0.6-0.3s-0.3-0.4-0.3-0.7c0-0.2,0.1-0.5,0.2-0.6S123.6,171.3,123.8,171.3z"/>
			<path fill="#231F20" d="M131.1,167.9c0.9,0,1.5,0.4,2,1.1s0.7,1.8,0.7,3.2c0,1.3-0.2,2.4-0.7,3.1s-1.1,1.2-2,1.2
				c-0.9,0-1.5-0.4-2-1.1s-0.7-1.8-0.7-3.2c0-1.3,0.2-2.4,0.7-3.1S130.2,167.9,131.1,167.9z M131.1,175.6c0.6,0,1-0.3,1.3-0.8
				s0.4-1.4,0.4-2.6c0-1.2-0.1-2.1-0.4-2.6s-0.7-0.8-1.3-0.8c-0.6,0-1,0.3-1.3,0.8s-0.4,1.4-0.4,2.6c0,1.2,0.1,2.1,0.4,2.6
				S130.5,175.6,131.1,175.6z M131,171.3c0.2,0,0.5,0.1,0.6,0.3s0.3,0.4,0.3,0.6c0,0.3-0.1,0.5-0.3,0.7s-0.4,0.3-0.6,0.3
				c-0.2,0-0.4-0.1-0.6-0.3s-0.3-0.4-0.3-0.7c0-0.2,0.1-0.5,0.2-0.6S130.8,171.3,131,171.3z"/>
			<path fill="#231F20" d="M138.3,167.9c0.9,0,1.5,0.4,2,1.1s0.7,1.8,0.7,3.2c0,1.3-0.2,2.4-0.7,3.1s-1.1,1.2-2,1.2
				c-0.9,0-1.5-0.4-2-1.1s-0.7-1.8-0.7-3.2c0-1.3,0.2-2.4,0.7-3.1S137.4,167.9,138.3,167.9z M138.3,175.6c0.6,0,1-0.3,1.3-0.8
				s0.4-1.4,0.4-2.6c0-1.2-0.1-2.1-0.4-2.6s-0.7-0.8-1.3-0.8c-0.6,0-1,0.3-1.3,0.8s-0.4,1.4-0.4,2.6c0,1.2,0.1,2.1,0.4,2.6
				S137.7,175.6,138.3,175.6z M138.2,171.3c0.2,0,0.5,0.1,0.6,0.3s0.3,0.4,0.3,0.6c0,0.3-0.1,0.5-0.3,0.7s-0.4,0.3-0.6,0.3
				c-0.2,0-0.4-0.1-0.6-0.3s-0.3-0.4-0.3-0.7c0-0.2,0.1-0.5,0.2-0.6S138,171.3,138.2,171.3z"/>
		</g>
	</g>
	<g>
		<g>
			<path fill="#231F20" d="M233.3,167.9c0.9,0,1.5,0.4,2,1.1s0.7,1.8,0.7,3.2c0,1.3-0.2,2.4-0.7,3.1s-1.1,1.2-2,1.2
				c-0.9,0-1.5-0.4-2-1.1s-0.7-1.8-0.7-3.2c0-1.3,0.2-2.4,0.7-3.1S232.4,167.9,233.3,167.9z M233.3,175.6c0.6,0,1-0.3,1.3-0.8
				s0.4-1.4,0.4-2.6c0-1.2-0.1-2.1-0.4-2.6s-0.7-0.8-1.3-0.8c-0.6,0-1,0.3-1.3,0.8s-0.4,1.4-0.4,2.6c0,1.2,0.1,2.1,0.4,2.6
				S232.7,175.6,233.3,175.6z M233.3,171.3c0.2,0,0.5,0.1,0.6,0.3s0.3,0.4,0.3,0.6c0,0.3-0.1,0.5-0.3,0.7s-0.4,0.3-0.6,0.3
				c-0.2,0-0.4-0.1-0.6-0.3s-0.3-0.4-0.3-0.7c0-0.2,0.1-0.5,0.2-0.6S233,171.3,233.3,171.3z"/>
		</g>
	</g>
	<g>
		<g>
			<path fill="#231F20" d="M309.9,176.3h-4.3v-0.8h1.8V169l-1.7,0.8v-1l1.8-0.9h0.8v7.5h1.6V176.3z"/>
			<path fill="#231F20" d="M314.8,167.9c0.9,0,1.5,0.4,2,1.1s0.7,1.8,0.7,3.2c0,1.3-0.2,2.4-0.7,3.1s-1.1,1.2-2,1.2
				c-0.9,0-1.5-0.4-2-1.1s-0.7-1.8-0.7-3.2c0-1.3,0.2-2.4,0.7-3.1S313.9,167.9,314.8,167.9z M314.8,175.6c0.6,0,1-0.3,1.3-0.8
				s0.4-1.4,0.4-2.6c0-1.2-0.1-2.1-0.4-2.6s-0.7-0.8-1.3-0.8c-0.6,0-1,0.3-1.3,0.8s-0.4,1.4-0.4,2.6c0,1.2,0.1,2.1,0.4,2.6
				S314.2,175.6,314.8,175.6z M314.7,171.3c0.2,0,0.5,0.1,0.6,0.3s0.3,0.4,0.3,0.6c0,0.3-0.1,0.5-0.3,0.7s-0.4,0.3-0.6,0.3
				c-0.2,0-0.4-0.1-0.6-0.3s-0.3-0.4-0.3-0.7c0-0.2,0.1-0.5,0.2-0.6S314.5,171.3,314.7,171.3z"/>
			<path fill="#231F20" d="M322,167.9c0.9,0,1.5,0.4,2,1.1s0.7,1.8,0.7,3.2c0,1.3-0.2,2.4-0.7,3.1s-1.1,1.2-2,1.2
				c-0.9,0-1.5-0.4-2-1.1s-0.7-1.8-0.7-3.2c0-1.3,0.2-2.4,0.7-3.1S321.1,167.9,322,167.9z M322,175.6c0.6,0,1-0.3,1.3-0.8
				s0.4-1.4,0.4-2.6c0-1.2-0.1-2.1-0.4-2.6s-0.7-0.8-1.3-0.8c-0.6,0-1,0.3-1.3,0.8s-0.4,1.4-0.4,2.6c0,1.2,0.1,2.1,0.4,2.6
				S321.4,175.6,322,175.6z M321.9,171.3c0.2,0,0.5,0.1,0.6,0.3s0.3,0.4,0.3,0.6c0,0.3-0.1,0.5-0.3,0.7s-0.4,0.3-0.6,0.3
				c-0.2,0-0.4-0.1-0.6-0.3s-0.3-0.4-0.3-0.7c0-0.2,0.1-0.5,0.2-0.6S321.7,171.3,321.9,171.3z"/>
			<path fill="#231F20" d="M329.2,167.9c0.9,0,1.5,0.4,2,1.1s0.7,1.8,0.7,3.2c0,1.3-0.2,2.4-0.7,3.1s-1.1,1.2-2,1.2
				c-0.9,0-1.5-0.4-2-1.1s-0.7-1.8-0.7-3.2c0-1.3,0.2-2.4,0.7-3.1S328.3,167.9,329.2,167.9z M329.2,175.6c0.6,0,1-0.3,1.3-0.8
				s0.4-1.4,0.4-2.6c0-1.2-0.1-2.1-0.4-2.6s-0.7-0.8-1.3-0.8c-0.6,0-1,0.3-1.3,0.8s-0.4,1.4-0.4,2.6c0,1.2,0.1,2.1,0.4,2.6
				S328.6,175.6,329.2,175.6z M329.1,171.3c0.2,0,0.5,0.1,0.6,0.3s0.3,0.4,0.3,0.6c0,0.3-0.1,0.5-0.3,0.7s-0.4,0.3-0.6,0.3
				c-0.2,0-0.4-0.1-0.6-0.3s-0.3-0.4-0.3-0.7c0-0.2,0.1-0.5,0.2-0.6S328.9,171.3,329.1,171.3z"/>
		</g>
	</g>
	<g>
		<g>
			<path fill="#231F20" d="M395.7,176.3h-4.5v-0.7c1.2-1.3,1.9-2.1,2.2-2.6s0.6-0.9,0.8-1.4s0.3-1,0.3-1.4c0-0.5-0.1-0.8-0.4-1.1
				s-0.7-0.4-1.2-0.4c-0.4,0-0.9,0.1-1.6,0.4l-0.1-0.8c0.6-0.2,1.2-0.4,1.9-0.4c0.7,0,1.3,0.2,1.8,0.6s0.7,1,0.7,1.7
				c0,0.5-0.1,1-0.3,1.5s-0.5,1-0.9,1.4s-1.1,1.3-2.1,2.4h3.5V176.3z"/>
			<path fill="#231F20" d="M400.8,167.9c0.9,0,1.5,0.4,2,1.1s0.7,1.8,0.7,3.2c0,1.3-0.2,2.4-0.7,3.1s-1.1,1.2-2,1.2
				c-0.9,0-1.5-0.4-2-1.1s-0.7-1.8-0.7-3.2c0-1.3,0.2-2.4,0.7-3.1S399.9,167.9,400.8,167.9z M400.8,175.6c0.6,0,1-0.3,1.3-0.8
				s0.4-1.4,0.4-2.6c0-1.2-0.1-2.1-0.4-2.6s-0.7-0.8-1.3-0.8c-0.6,0-1,0.3-1.3,0.8s-0.4,1.4-0.4,2.6c0,1.2,0.1,2.1,0.4,2.6
				S400.2,175.6,400.8,175.6z M400.7,171.3c0.2,0,0.5,0.1,0.6,0.3s0.3,0.4,0.3,0.6c0,0.3-0.1,0.5-0.3,0.7s-0.4,0.3-0.6,0.3
				c-0.2,0-0.4-0.1-0.6-0.3s-0.3-0.4-0.3-0.7c0-0.2,0.1-0.5,0.2-0.6S400.5,171.3,400.7,171.3z"/>
			<path fill="#231F20" d="M408,167.9c0.9,0,1.5,0.4,2,1.1s0.7,1.8,0.7,3.2c0,1.3-0.2,2.4-0.7,3.1s-1.1,1.2-2,1.2
				c-0.9,0-1.5-0.4-2-1.1s-0.7-1.8-0.7-3.2c0-1.3,0.2-2.4,0.7-3.1S407.1,167.9,408,167.9z M408,175.6c0.6,0,1-0.3,1.3-0.8
				s0.4-1.4,0.4-2.6c0-1.2-0.1-2.1-0.4-2.6s-0.7-0.8-1.3-0.8c-0.6,0-1,0.3-1.3,0.8s-0.4,1.4-0.4,2.6c0,1.2,0.1,2.1,0.4,2.6
				S407.4,175.6,408,175.6z M407.9,171.3c0.2,0,0.5,0.1,0.6,0.3s0.3,0.4,0.3,0.6c0,0.3-0.1,0.5-0.3,0.7s-0.4,0.3-0.6,0.3
				c-0.2,0-0.4-0.1-0.6-0.3s-0.3-0.4-0.3-0.7c0-0.2,0.1-0.5,0.2-0.6S407.7,171.3,407.9,171.3z"/>
			<path fill="#231F20" d="M415.2,167.9c0.9,0,1.5,0.4,2,1.1s0.7,1.8,0.7,3.2c0,1.3-0.2,2.4-0.7,3.1s-1.1,1.2-2,1.2
				c-0.9,0-1.5-0.4-2-1.1s-0.7-1.8-0.7-3.2c0-1.3,0.2-2.4,0.7-3.1S414.3,167.9,415.2,167.9z M415.2,175.6c0.6,0,1-0.3,1.3-0.8
				s0.4-1.4,0.4-2.6c0-1.2-0.1-2.1-0.4-2.6s-0.7-0.8-1.3-0.8c-0.6,0-1,0.3-1.3,0.8s-0.4,1.4-0.4,2.6c0,1.2,0.1,2.1,0.4,2.6
				S414.6,175.6,415.2,175.6z M415.1,171.3c0.2,0,0.5,0.1,0.6,0.3s0.3,0.4,0.3,0.6c0,0.3-0.1,0.5-0.3,0.7s-0.4,0.3-0.6,0.3
				c-0.2,0-0.4-0.1-0.6-0.3s-0.3-0.4-0.3-0.7c0-0.2,0.1-0.5,0.2-0.6S414.9,171.3,415.1,171.3z"/>
		</g>
	</g>
	<g>
		<g>
			<path fill="#231F20" d="M480.1,171.9c0.5,0.1,0.9,0.4,1.2,0.8s0.5,0.8,0.5,1.3c0,0.7-0.3,1.3-0.8,1.8s-1.2,0.7-2,0.7
				c-0.7,0-1.2-0.1-1.8-0.4l0.2-0.8c0.5,0.3,1.1,0.4,1.6,0.4c0.5,0,0.9-0.2,1.3-0.5s0.5-0.7,0.5-1.2c0-0.5-0.2-0.9-0.6-1.2
				s-0.9-0.5-1.5-0.5h-0.3v-0.8h0.1c0.6,0,1.1-0.1,1.5-0.4s0.6-0.7,0.6-1.1c0-0.4-0.1-0.7-0.4-0.9s-0.7-0.3-1.2-0.3
				c-0.4,0-0.9,0.1-1.4,0.3l-0.1-0.8c0.5-0.2,1.1-0.4,1.6-0.4c0.7,0,1.3,0.2,1.8,0.6s0.7,0.9,0.7,1.5c0,0.4-0.1,0.8-0.4,1.2
				S480.5,171.7,480.1,171.9L480.1,171.9z"/>
			<path fill="#231F20" d="M486.8,167.9c0.9,0,1.5,0.4,2,1.1s0.7,1.8,0.7,3.2c0,1.3-0.2,2.4-0.7,3.1s-1.1,1.2-2,1.2
				c-0.9,0-1.5-0.4-2-1.1s-0.7-1.8-0.7-3.2c0-1.3,0.2-2.4,0.7-3.1S485.9,167.9,486.8,167.9z M486.8,175.6c0.6,0,1-0.3,1.3-0.8
				s0.4-1.4,0.4-2.6c0-1.2-0.1-2.1-0.4-2.6s-0.7-0.8-1.3-0.8c-0.6,0-1,0.3-1.3,0.8s-0.4,1.4-0.4,2.6c0,1.2,0.1,2.1,0.4,2.6
				S486.2,175.6,486.8,175.6z M486.7,171.3c0.2,0,0.5,0.1,0.6,0.3s0.3,0.4,0.3,0.6c0,0.3-0.1,0.5-0.3,0.7s-0.4,0.3-0.6,0.3
				c-0.2,0-0.4-0.1-0.6-0.3s-0.3-0.4-0.3-0.7c0-0.2,0.1-0.5,0.2-0.6S486.5,171.3,486.7,171.3z"/>
			<path fill="#231F20" d="M494,167.9c0.9,0,1.5,0.4,2,1.1s0.7,1.8,0.7,3.2c0,1.3-0.2,2.4-0.7,3.1s-1.1,1.2-2,1.2
				c-0.9,0-1.5-0.4-2-1.1s-0.7-1.8-0.7-3.2c0-1.3,0.2-2.4,0.7-3.1S493.1,167.9,494,167.9z M494,175.6c0.6,0,1-0.3,1.3-0.8
				s0.4-1.4,0.4-2.6c0-1.2-0.1-2.1-0.4-2.6s-0.7-0.8-1.3-0.8c-0.6,0-1,0.3-1.3,0.8s-0.4,1.4-0.4,2.6c0,1.2,0.1,2.1,0.4,2.6
				S493.4,175.6,494,175.6z M493.9,171.3c0.2,0,0.5,0.1,0.6,0.3s0.3,0.4,0.3,0.6c0,0.3-0.1,0.5-0.3,0.7s-0.4,0.3-0.6,0.3
				c-0.2,0-0.4-0.1-0.6-0.3s-0.3-0.4-0.3-0.7c0-0.2,0.1-0.5,0.2-0.6S493.7,171.3,493.9,171.3z"/>
			<path fill="#231F20" d="M501.2,167.9c0.9,0,1.5,0.4,2,1.1s0.7,1.8,0.7,3.2c0,1.3-0.2,2.4-0.7,3.1s-1.1,1.2-2,1.2
				c-0.9,0-1.5-0.4-2-1.1s-0.7-1.8-0.7-3.2c0-1.3,0.2-2.4,0.7-3.1S500.3,167.9,501.2,167.9z M501.2,175.6c0.6,0,1-0.3,1.3-0.8
				s0.4-1.4,0.4-2.6c0-1.2-0.1-2.1-0.4-2.6s-0.7-0.8-1.3-0.8c-0.6,0-1,0.3-1.3,0.8s-0.4,1.4-0.4,2.6c0,1.2,0.1,2.1,0.4,2.6
				S500.6,175.6,501.2,175.6z M501.1,171.3c0.2,0,0.5,0.1,0.6,0.3s0.3,0.4,0.3,0.6c0,0.3-0.1,0.5-0.3,0.7s-0.4,0.3-0.6,0.3
				c-0.2,0-0.4-0.1-0.6-0.3s-0.3-0.4-0.3-0.7c0-0.2,0.1-0.5,0.2-0.6S500.9,171.3,501.1,171.3z"/>
		</g>
	</g>
	<g>
		<g>
			<path fill="#231F20" d="M568.3,174.4h-1v1.9h-1v-1.9h-3.6v-0.7l3.3-5.6h1.3v5.5h1V174.4z M566.3,173.6V169l-2.6,4.6H566.3z"/>
			<path fill="#231F20" d="M572.8,167.9c0.9,0,1.5,0.4,2,1.1s0.7,1.8,0.7,3.2c0,1.3-0.2,2.4-0.7,3.1s-1.1,1.2-2,1.2
				c-0.9,0-1.5-0.4-2-1.1s-0.7-1.8-0.7-3.2c0-1.3,0.2-2.4,0.7-3.1S571.9,167.9,572.8,167.9z M572.8,175.6c0.6,0,1-0.3,1.3-0.8
				s0.4-1.4,0.4-2.6c0-1.2-0.1-2.1-0.4-2.6s-0.7-0.8-1.3-0.8c-0.6,0-1,0.3-1.3,0.8s-0.4,1.4-0.4,2.6c0,1.2,0.1,2.1,0.4,2.6
				S572.2,175.6,572.8,175.6z M572.7,171.3c0.2,0,0.5,0.1,0.6,0.3s0.3,0.4,0.3,0.6c0,0.3-0.1,0.5-0.3,0.7s-0.4,0.3-0.6,0.3
				c-0.2,0-0.4-0.1-0.6-0.3s-0.3-0.4-0.3-0.7c0-0.2,0.1-0.5,0.2-0.6S572.5,171.3,572.7,171.3z"/>
			<path fill="#231F20" d="M580,167.9c0.9,0,1.5,0.4,2,1.1s0.7,1.8,0.7,3.2c0,1.3-0.2,2.4-0.7,3.1s-1.1,1.2-2,1.2
				c-0.9,0-1.5-0.4-2-1.1s-0.7-1.8-0.7-3.2c0-1.3,0.2-2.4,0.7-3.1S579.1,167.9,580,167.9z M580,175.6c0.6,0,1-0.3,1.3-0.8
				s0.4-1.4,0.4-2.6c0-1.2-0.1-2.1-0.4-2.6s-0.7-0.8-1.3-0.8c-0.6,0-1,0.3-1.3,0.8s-0.4,1.4-0.4,2.6c0,1.2,0.1,2.1,0.4,2.6
				S579.4,175.6,580,175.6z M579.9,171.3c0.2,0,0.5,0.1,0.6,0.3s0.3,0.4,0.3,0.6c0,0.3-0.1,0.5-0.3,0.7s-0.4,0.3-0.6,0.3
				c-0.2,0-0.4-0.1-0.6-0.3s-0.3-0.4-0.3-0.7c0-0.2,0.1-0.5,0.2-0.6S579.7,171.3,579.9,171.3z"/>
			<path fill="#231F20" d="M587.2,167.9c0.9,0,1.5,0.4,2,1.1s0.7,1.8,0.7,3.2c0,1.3-0.2,2.4-0.7,3.1s-1.1,1.2-2,1.2
				c-0.9,0-1.5-0.4-2-1.1s-0.7-1.8-0.7-3.2c0-1.3,0.2-2.4,0.7-3.1S586.3,167.9,587.2,167.9z M587.2,175.6c0.6,0,1-0.3,1.3-0.8
				s0.4-1.4,0.4-2.6c0-1.2-0.1-2.1-0.4-2.6s-0.7-0.8-1.3-0.8c-0.6,0-1,0.3-1.3,0.8s-0.4,1.4-0.4,2.6c0,1.2,0.1,2.1,0.4,2.6
				S586.6,175.6,587.2,175.6z M587.1,171.3c0.2,0,0.5,0.1,0.6,0.3s0.3,0.4,0.3,0.6c0,0.3-0.1,0.5-0.3,0.7s-0.4,0.3-0.6,0.3
				c-0.2,0-0.4-0.1-0.6-0.3s-0.3-0.4-0.3-0.7c0-0.2,0.1-0.5,0.2-0.6S586.9,171.3,587.1,171.3z"/>
		</g>
	</g>
	<g>
		<g>
			<path fill="#231F20" d="M650.5,171.4c0.3-0.1,0.5-0.1,0.8-0.1c0.8,0,1.4,0.2,1.9,0.7s0.7,1.1,0.7,1.8c0,0.8-0.3,1.4-0.8,1.9
				s-1.2,0.8-1.9,0.8c-0.7,0-1.3-0.1-1.8-0.4l0.2-0.8c0.5,0.2,1.1,0.3,1.6,0.3c0.5,0,0.9-0.2,1.2-0.5s0.5-0.8,0.5-1.4
				c0-0.6-0.1-1-0.4-1.3s-0.7-0.4-1.1-0.4c-0.3,0-0.7,0.1-1,0.2l-0.6-0.3V168h3.8v0.8h-2.9V171.4z"/>
			<path fill="#231F20" d="M658.8,167.9c0.9,0,1.5,0.4,2,1.1s0.7,1.8,0.7,3.2c0,1.3-0.2,2.4-0.7,3.1s-1.1,1.2-2,1.2
				c-0.9,0-1.5-0.4-2-1.1s-0.7-1.8-0.7-3.2c0-1.3,0.2-2.4,0.7-3.1S657.9,167.9,658.8,167.9z M658.8,175.6c0.6,0,1-0.3,1.3-0.8
				s0.4-1.4,0.4-2.6c0-1.2-0.1-2.1-0.4-2.6s-0.7-0.8-1.3-0.8c-0.6,0-1,0.3-1.3,0.8s-0.4,1.4-0.4,2.6c0,1.2,0.1,2.1,0.4,2.6
				S658.2,175.6,658.8,175.6z M658.7,171.3c0.2,0,0.5,0.1,0.6,0.3s0.3,0.4,0.3,0.6c0,0.3-0.1,0.5-0.3,0.7s-0.4,0.3-0.6,0.3
				c-0.2,0-0.4-0.1-0.6-0.3s-0.3-0.4-0.3-0.7c0-0.2,0.1-0.5,0.2-0.6S658.5,171.3,658.7,171.3z"/>
			<path fill="#231F20" d="M666,167.9c0.9,0,1.5,0.4,2,1.1s0.7,1.8,0.7,3.2c0,1.3-0.2,2.4-0.7,3.1s-1.1,1.2-2,1.2
				c-0.9,0-1.5-0.4-2-1.1s-0.7-1.8-0.7-3.2c0-1.3,0.2-2.4,0.7-3.1S665.1,167.9,666,167.9z M666,175.6c0.6,0,1-0.3,1.3-0.8
				s0.4-1.4,0.4-2.6c0-1.2-0.1-2.1-0.4-2.6s-0.7-0.8-1.3-0.8c-0.6,0-1,0.3-1.3,0.8s-0.4,1.4-0.4,2.6c0,1.2,0.1,2.1,0.4,2.6
				S665.4,175.6,666,175.6z M665.9,171.3c0.2,0,0.5,0.1,0.6,0.3s0.3,0.4,0.3,0.6c0,0.3-0.1,0.5-0.3,0.7s-0.4,0.3-0.6,0.3
				c-0.2,0-0.4-0.1-0.6-0.3s-0.3-0.4-0.3-0.7c0-0.2,0.1-0.5,0.2-0.6S665.7,171.3,665.9,171.3z"/>
			<path fill="#231F20" d="M673.2,167.9c0.9,0,1.5,0.4,2,1.1s0.7,1.8,0.7,3.2c0,1.3-0.2,2.4-0.7,3.1s-1.1,1.2-2,1.2
				c-0.9,0-1.5-0.4-2-1.1s-0.7-1.8-0.7-3.2c0-1.3,0.2-2.4,0.7-3.1S672.3,167.9,673.2,167.9z M673.2,175.6c0.6,0,1-0.3,1.3-0.8
				s0.4-1.4,0.4-2.6c0-1.2-0.1-2.1-0.4-2.6s-0.7-0.8-1.3-0.8c-0.6,0-1,0.3-1.3,0.8s-0.4,1.4-0.4,2.6c0,1.2,0.1,2.1,0.4,2.6
				S672.6,175.6,673.2,175.6z M673.1,171.3c0.2,0,0.5,0.1,0.6,0.3s0.3,0.4,0.3,0.6c0,0.3-0.1,0.5-0.3,0.7s-0.4,0.3-0.6,0.3
				c-0.2,0-0.4-0.1-0.6-0.3s-0.3-0.4-0.3-0.7c0-0.2,0.1-0.5,0.2-0.6S672.9,171.3,673.1,171.3z"/>
		</g>
	</g>
	<g>
		<g>
			<path fill="#231F20" d="M737.1,172c0.5-0.4,1.1-0.6,1.7-0.6c0.7,0,1.3,0.2,1.8,0.7s0.7,1,0.7,1.7c0,0.8-0.2,1.4-0.6,1.9
				s-1,0.8-1.7,0.8c-0.9,0-1.6-0.4-2.1-1.2s-0.8-1.8-0.8-3c0-1.2,0.3-2.3,0.8-3.1s1.3-1.3,2.2-1.3c0.6,0,1.2,0.1,1.7,0.3l-0.2,0.9
				c-0.5-0.2-1-0.3-1.5-0.3c-0.6,0-1.1,0.3-1.5,0.9S737.1,171,737.1,172z M737.1,172.8c0,0.7,0.2,1.3,0.5,1.9s0.8,0.9,1.3,0.9
				c0.4,0,0.8-0.2,1-0.5s0.3-0.7,0.3-1.3c0-0.5-0.1-0.9-0.4-1.2s-0.6-0.4-1.1-0.4C738.2,172.2,737.6,172.4,737.1,172.8z"/>
			<path fill="#231F20" d="M745.8,167.9c0.9,0,1.5,0.4,2,1.1s0.7,1.8,0.7,3.2c0,1.3-0.2,2.4-0.7,3.1s-1.1,1.2-2,1.2
				c-0.9,0-1.5-0.4-2-1.1s-0.7-1.8-0.7-3.2c0-1.3,0.2-2.4,0.7-3.1S744.9,167.9,745.8,167.9z M745.8,175.6c0.6,0,1-0.3,1.3-0.8
				s0.4-1.4,0.4-2.6c0-1.2-0.1-2.1-0.4-2.6s-0.7-0.8-1.3-0.8c-0.6,0-1,0.3-1.3,0.8s-0.4,1.4-0.4,2.6c0,1.2,0.1,2.1,0.4,2.6
				S745.2,175.6,745.8,175.6z M745.8,171.3c0.2,0,0.5,0.1,0.6,0.3s0.3,0.4,0.3,0.6c0,0.3-0.1,0.5-0.3,0.7s-0.4,0.3-0.6,0.3
				c-0.2,0-0.4-0.1-0.6-0.3s-0.3-0.4-0.3-0.7c0-0.2,0.1-0.5,0.2-0.6S745.5,171.3,745.8,171.3z"/>
			<path fill="#231F20" d="M753,167.9c0.9,0,1.5,0.4,2,1.1s0.7,1.8,0.7,3.2c0,1.3-0.2,2.4-0.7,3.1s-1.1,1.2-2,1.2
				c-0.9,0-1.5-0.4-2-1.1s-0.7-1.8-0.7-3.2c0-1.3,0.2-2.4,0.7-3.1S752.1,167.9,753,167.9z M753,175.6c0.6,0,1-0.3,1.3-0.8
				s0.4-1.4,0.4-2.6c0-1.2-0.1-2.1-0.4-2.6s-0.7-0.8-1.3-0.8c-0.6,0-1,0.3-1.3,0.8s-0.4,1.4-0.4,2.6c0,1.2,0.1,2.1,0.4,2.6
				S752.4,175.6,753,175.6z M753,171.3c0.2,0,0.5,0.1,0.6,0.3s0.3,0.4,0.3,0.6c0,0.3-0.1,0.5-0.3,0.7s-0.4,0.3-0.6,0.3
				c-0.2,0-0.4-0.1-0.6-0.3s-0.3-0.4-0.3-0.7c0-0.2,0.1-0.5,0.2-0.6S752.7,171.3,753,171.3z"/>
			<path fill="#231F20" d="M760.2,167.9c0.9,0,1.5,0.4,2,1.1s0.7,1.8,0.7,3.2c0,1.3-0.2,2.4-0.7,3.1s-1.1,1.2-2,1.2
				c-0.9,0-1.5-0.4-2-1.1s-0.7-1.8-0.7-3.2c0-1.3,0.2-2.4,0.7-3.1S759.3,167.9,760.2,167.9z M760.2,175.6c0.6,0,1-0.3,1.3-0.8
				s0.4-1.4,0.4-2.6c0-1.2-0.1-2.1-0.4-2.6s-0.7-0.8-1.3-0.8c-0.6,0-1,0.3-1.3,0.8s-0.4,1.4-0.4,2.6c0,1.2,0.1,2.1,0.4,2.6
				S759.6,175.6,760.2,175.6z M760.2,171.3c0.2,0,0.5,0.1,0.6,0.3s0.3,0.4,0.3,0.6c0,0.3-0.1,0.5-0.3,0.7s-0.4,0.3-0.6,0.3
				c-0.2,0-0.4-0.1-0.6-0.3s-0.3-0.4-0.3-0.7c0-0.2,0.1-0.5,0.2-0.6S759.9,171.3,760.2,171.3z"/>
		</g>
	</g>
	<g>
		<rect x="125.7" y="179.7" fill="none" stroke="#231F20" stroke-miterlimit="10" width="21.3" height="7.5"/>
		<rect x="168.4" y="179.7" fill="none" stroke="#231F20" stroke-miterlimit="10" width="21.3" height="7.5"/>
		<rect x="211" y="179.7" fill="none" stroke="#231F20" stroke-miterlimit="10" width="21.3" height="7.5"/>
		<rect x="318.4" y="179.7" fill="none" stroke="#231F20" stroke-miterlimit="10" width="86" height="7.5"/>
		<rect x="490.6" y="179.7" fill="none" stroke="#231F20" stroke-miterlimit="10" width="86" height="7.5"/>
		<rect x="662.6" y="179.7" fill="none" stroke="#231F20" stroke-miterlimit="10" width="86" height="7.5"/>
		<rect x="748.7" y="179.7" fill="none" stroke="#231F20" stroke-miterlimit="10" width="86" height="7.5"/>
		<line fill="none" stroke="#231F20" stroke-miterlimit="10" x1="125.7" y1="183.5" x2="748.6" y2="183.5"/>
		<rect x="147" y="179.7" fill="#FFFFFF" stroke="#231F20" stroke-miterlimit="10" width="21.3" height="7.5"/>
		<rect x="189.7" y="179.7" fill="#FFFFFF" stroke="#231F20" stroke-miterlimit="10" width="21.3" height="7.5"/>
		<rect x="232.4" y="179.7" fill="#FFFFFF" stroke="#231F20" stroke-miterlimit="10" width="86" height="7.5"/>
		<rect x="404.6" y="179.7" fill="#FFFFFF" stroke="#231F20" stroke-miterlimit="10" width="86" height="7.5"/>
		<rect x="576.6" y="179.7" fill="#FFFFFF" stroke="#231F20" stroke-miterlimit="10" width="86" height="7.5"/>
	</g>
</g>
<g>
	<g>
		<g>
			<path fill="#231F20" d="M191,224.5h-4.3v-0.8h1.8v-6.4l-1.7,0.8v-1l1.8-0.9h0.8v7.5h1.6V224.5z"/>
		</g>
	</g>
	<g>
		<g>
			<path fill="#231F20" d="M328.9,223.2c0.2,0,0.4,0.1,0.5,0.2s0.2,0.3,0.2,0.5c0,0.2-0.1,0.4-0.2,0.5s-0.3,0.2-0.5,0.2
				c-0.2,0-0.4-0.1-0.5-0.2s-0.2-0.3-0.2-0.5s0.1-0.4,0.2-0.5S328.7,223.2,328.9,223.2z"/>
			<path fill="#231F20" d="M335,219.6c0.3-0.1,0.5-0.1,0.8-0.1c0.8,0,1.4,0.2,1.9,0.7s0.7,1.1,0.7,1.8c0,0.8-0.3,1.4-0.8,1.9
				s-1.2,0.8-1.9,0.8c-0.7,0-1.3-0.1-1.8-0.4l0.2-0.8c0.5,0.2,1.1,0.3,1.6,0.3c0.5,0,0.9-0.2,1.2-0.5s0.5-0.8,0.5-1.4
				c0-0.6-0.1-1-0.4-1.3s-0.7-0.4-1.1-0.4c-0.3,0-0.7,0.1-1,0.2l-0.6-0.3v-3.9h3.8v0.8H335V219.6z"/>
		</g>
	</g>
	<g>
		<g>
			<path fill="#231F20" d="M474.5,216.1c0.9,0,1.5,0.4,2,1.1s0.7,1.8,0.7,3.2c0,1.3-0.2,2.4-0.7,3.1s-1.1,1.2-2,1.2
				c-0.9,0-1.5-0.4-2-1.1s-0.7-1.8-0.7-3.2c0-1.3,0.2-2.4,0.7-3.1S473.7,216.1,474.5,216.1z M474.5,223.9c0.6,0,1-0.3,1.3-0.8
				s0.4-1.4,0.4-2.6c0-1.2-0.1-2.1-0.4-2.6s-0.7-0.8-1.3-0.8c-0.6,0-1,0.3-1.3,0.8s-0.4,1.4-0.4,2.6c0,1.2,0.1,2.1,0.4,2.6
				S474,223.9,474.5,223.9z M474.5,219.5c0.2,0,0.5,0.1,0.6,0.3s0.3,0.4,0.3,0.6c0,0.3-0.1,0.5-0.3,0.7s-0.4,0.3-0.6,0.3
				c-0.2,0-0.4-0.1-0.6-0.3s-0.3-0.4-0.3-0.7c0-0.2,0.1-0.5,0.2-0.6S474.3,219.5,474.5,219.5z"/>
		</g>
	</g>
	<rect x="186.9" y="227.9" fill="#FFFFFF" stroke="#231F20" stroke-miterlimit="10" width="28.8" height="7.5"/>
	<rect x="244.5" y="227.9" fill="#FFFFFF" stroke="#231F20" stroke-miterlimit="10" width="28.8" height="7.5"/>
	<rect x="302.1" y="227.9" fill="#FFFFFF" stroke="#231F20" stroke-miterlimit="10" width="28.8" height="7.5"/>
	<rect x="359.7" y="227.9" fill="#FFFFFF" stroke="#231F20" stroke-miterlimit="10" width="28.8" height="7.5"/>
	<rect x="417.3" y="227.9" fill="#FFFFFF" stroke="#231F20" stroke-miterlimit="10" width="28.8" height="7.5"/>
	<line fill="none" stroke="#231F20" stroke-miterlimit="10" x1="186.9" y1="231.7" x2="762.7" y2="231.7"/>
	<rect x="474.7" y="227.9" fill="none" stroke="#231F20" stroke-miterlimit="10" width="288" height="7.5"/>
	<rect x="215.7" y="227.9" fill="#FFFFFF" stroke="#231F20" stroke-miterlimit="10" width="28.8" height="7.5"/>
	<rect x="273.3" y="227.9" fill="#FFFFFF" stroke="#231F20" stroke-miterlimit="10" width="28.8" height="7.5"/>
	<rect x="330.9" y="227.9" fill="#FFFFFF" stroke="#231F20" stroke-miterlimit="10" width="28.8" height="7.5"/>
	<rect x="388.5" y="227.9" fill="#FFFFFF" stroke="#231F20" stroke-miterlimit="10" width="28.8" height="7.5"/>
	<rect x="446.1" y="227.9" fill="#FFFFFF" stroke="#231F20" stroke-miterlimit="10" width="28.8" height="7.5"/>
</g>
<g>
	<g>
		<path fill="#231F20" d="M912.4,137.9h-4.3V137h1.8v-6.4l-1.7,0.8v-1l1.8-0.9h0.8v7.5h1.6V137.9z"/>
		<path fill="#231F20" d="M927.1,137.9h-0.9v-7.1l-1.2,3.4h-0.9l-1.2-3.4v7.1h-0.9v-8.3h1.2l1.4,3.8l1.4-3.8h1.2V137.9z"/>
		<path fill="#231F20" d="M933.5,137.9h-3.8V137h1.4v-6.6h-1.4v-0.8h3.8v0.8h-1.4v6.6h1.4V137.9z"/>
		<path fill="#231F20" d="M941.3,137.9h-4.5v-8.3h1v7.4h3.5V137.9z"/>
		<path fill="#231F20" d="M948.3,137.9H944v-8.3h4.3v0.8h-3.3v2.6h3.2v0.8h-3.2v3.2h3.4V137.9z"/>
	</g>
</g>
<g>
	<g>
		<path fill="#231F20" d="M809.9,168.7l-3.3,7.6h-1l3.2-7.4H805V168h4.9V168.7z"/>
		<path fill="#231F20" d="M814.6,167.9c0.9,0,1.5,0.4,2,1.1s0.7,1.8,0.7,3.2c0,1.3-0.2,2.4-0.7,3.1s-1.1,1.2-2,1.2
			c-0.9,0-1.5-0.4-2-1.1s-0.7-1.8-0.7-3.2c0-1.3,0.2-2.4,0.7-3.1S813.7,167.9,814.6,167.9z M814.6,175.6c0.6,0,1-0.3,1.3-0.8
			s0.4-1.4,0.4-2.6c0-1.2-0.1-2.1-0.4-2.6s-0.7-0.8-1.3-0.8c-0.6,0-1,0.3-1.3,0.8s-0.4,1.4-0.4,2.6c0,1.2,0.1,2.1,0.4,2.6
			S814,175.6,814.6,175.6z M814.6,171.3c0.2,0,0.5,0.1,0.6,0.3s0.3,0.4,0.3,0.6c0,0.3-0.1,0.5-0.3,0.7s-0.4,0.3-0.6,0.3
			c-0.2,0-0.4-0.1-0.6-0.3s-0.3-0.4-0.3-0.7c0-0.2,0.1-0.5,0.2-0.6S814.3,171.3,814.6,171.3z"/>
		<path fill="#231F20" d="M821.8,167.9c0.9,0,1.5,0.4,2,1.1s0.7,1.8,0.7,3.2c0,1.3-0.2,2.4-0.7,3.1s-1.1,1.2-2,1.2
			c-0.9,0-1.5-0.4-2-1.1s-0.7-1.8-0.7-3.2c0-1.3,0.2-2.4,0.7-3.1S820.9,167.9,821.8,167.9z M821.8,175.6c0.6,0,1-0.3,1.3-0.8
			s0.4-1.4,0.4-2.6c0-1.2-0.1-2.1-0.4-2.6s-0.7-0.8-1.3-0.8c-0.6,0-1,0.3-1.3,0.8s-0.4,1.4-0.4,2.6c0,1.2,0.1,2.1,0.4,2.6
			S821.2,175.6,821.8,175.6z M821.8,171.3c0.2,0,0.5,0.1,0.6,0.3s0.3,0.4,0.3,0.6c0,0.3-0.1,0.5-0.3,0.7s-0.4,0.3-0.6,0.3
			c-0.2,0-0.4-0.1-0.6-0.3s-0.3-0.4-0.3-0.7c0-0.2,0.1-0.5,0.2-0.6S821.5,171.3,821.8,171.3z"/>
		<path fill="#231F20" d="M829,167.9c0.9,0,1.5,0.4,2,1.1s0.7,1.8,0.7,3.2c0,1.3-0.2,2.4-0.7,3.1s-1.1,1.2-2,1.2
			c-0.9,0-1.5-0.4-2-1.1s-0.7-1.8-0.7-3.2c0-1.3,0.2-2.4,0.7-3.1S828.1,167.9,829,167.9z M829,175.6c0.6,0,1-0.3,1.3-0.8
			s0.4-1.4,0.4-2.6c0-1.2-0.1-2.1-0.4-2.6s-0.7-0.8-1.3-0.8c-0.6,0-1,0.3-1.3,0.8s-0.4,1.4-0.4,2.6c0,1.2,0.1,2.1,0.4,2.6
			S828.4,175.6,829,175.6z M829,171.3c0.2,0,0.5,0.1,0.6,0.3s0.3,0.4,0.3,0.6c0,0.3-0.1,0.5-0.3,0.7s-0.4,0.3-0.6,0.3
			c-0.2,0-0.4-0.1-0.6-0.3s-0.3-0.4-0.3-0.7c0-0.2,0.1-0.5,0.2-0.6S828.7,171.3,829,171.3z"/>
		<path fill="#231F20" d="M845.7,168.9h-3.4v2.7h3.1v0.8h-3.1v3.9h-1V168h4.4V168.9z"/>
		<path fill="#231F20" d="M852.8,176.3h-4.3V168h4.3v0.8h-3.3v2.6h3.2v0.8h-3.2v3.2h3.4V176.3z"/>
		<path fill="#231F20" d="M860,176.3h-4.3V168h4.3v0.8h-3.3v2.6h3.2v0.8h-3.2v3.2h3.4V176.3z"/>
		<path fill="#231F20" d="M868,168.8h-2.5v7.5h-1v-7.5H862V168h6.1V168.8z"/>
	</g>
</g>
<g>
	<g>
		<path fill="#231F20" d="M760.6,224.5h-4.3v-0.8h1.8v-6.4l-1.7,0.8v-1l1.8-0.9h0.8v7.5h1.6V224.5z"/>
		<path fill="#231F20" d="M776.1,224.5h-1.2l-2.8-4.1l-0.9,0.9v3.1h-1v-8.3h1v4l3.7-4h1.1l-3.2,3.5L776.1,224.5z"/>
		<path fill="#231F20" d="M781.6,224.5h-3.8v-0.8h1.4v-6.6h-1.4v-0.8h3.8v0.8h-1.4v6.6h1.4V224.5z"/>
		<path fill="#231F20" d="M789.4,224.5h-4.5v-8.3h1v7.4h3.5V224.5z"/>
		<path fill="#231F20" d="M794.2,216.1c0.9,0,1.6,0.4,2.1,1.1s0.7,1.8,0.7,3.2c0,1.4-0.2,2.5-0.7,3.2s-1.2,1.1-2.1,1.1
			c-0.9,0-1.6-0.4-2.1-1.1s-0.7-1.8-0.7-3.2s0.2-2.5,0.7-3.2S793.3,216.1,794.2,216.1z M794.2,223.9c1.2,0,1.8-1.1,1.8-3.4
			c0-2.3-0.6-3.5-1.8-3.5c-0.6,0-1,0.3-1.4,0.9s-0.5,1.4-0.5,2.6c0,1.1,0.2,2,0.5,2.6S793.6,223.9,794.2,223.9z"/>
		<path fill="#231F20" d="M804.1,224.5h-0.9v-7.1l-1.2,3.4H801l-1.2-3.4v7.1h-0.9v-8.3h1.2l1.4,3.8l1.4-3.8h1.2V224.5z"/>
		<path fill="#231F20" d="M810.8,224.5h-4.3v-8.3h4.3v0.8h-3.3v2.6h3.2v0.8h-3.2v3.2h3.4V224.5z"/>
		<path fill="#231F20" d="M818.8,217.1h-2.5v7.5h-1v-7.5h-2.6v-0.8h6.1V217.1z"/>
		<path fill="#231F20" d="M825.2,224.5h-4.3v-8.3h4.3v0.8h-3.3v2.6h3.2v0.8h-3.2v3.2h3.4V224.5z"/>
		<path fill="#231F20" d="M833.5,224.5h-1.2l-2.4-3.8h-1.1v3.8h-1v-8.3h2.3c0.8,0,1.4,0.2,1.9,0.6s0.7,0.9,0.7,1.6
			c0,0.5-0.2,1-0.5,1.3s-0.8,0.7-1.4,0.8L833.5,224.5z M828.8,219.9h1.2c0.5,0,0.9-0.1,1.2-0.4s0.5-0.6,0.5-1c0-0.9-0.6-1.4-1.7-1.4
			h-1.2V219.9z"/>
	</g>
</g>
<g>
</g>
<g>
</g>
<g>
</g>
<g>
</g>
<g>
</g>
<g>
</g>
</svg>
