<?xml version="1.0" encoding="utf-8"?>
<!-- Generator: Adobe Illustrator 17.1.0, SVG Export Plug-In . SVG Version: 6.00 Build 0)  -->
<!DOCTYPE svg PUBLIC "-//W3C//DTD SVG 1.1//EN" "http://www.w3.org/Graphics/SVG/1.1/DTD/svg11.dtd">
<svg version="1.1" id="Layer_1" xmlns="http://www.w3.org/2000/svg" xmlns:xlink="http://www.w3.org/1999/xlink" x="0px" y="0px"
	 viewBox="0 0 960.4 268" enable-background="new 0 0 960.4 268" xml:space="preserve">
<g>
	<g>
		<path fill="#231F20" d="M292.7,220.6h-3.8v-0.8h1.4v-6.6h-1.4v-0.8h3.8v0.8h-1.4v6.6h1.4V220.6z"/>
		<path fill="#231F20" d="M300.5,220.6h-1.1l-3-6.5v6.5h-1v-8.3h1.1l3,6.5v-6.5h0.9V220.6z"/>
		<path fill="#231F20" d="M314.8,220.6h-4.5v-8.3h1v7.4h3.5V220.6z"/>
		<path fill="#231F20" d="M319.6,212.2c0.9,0,1.6,0.4,2.1,1.1s0.7,1.8,0.7,3.2c0,1.4-0.2,2.5-0.7,3.2s-1.2,1.1-2.1,1.1
			c-0.9,0-1.6-0.4-2.1-1.1s-0.7-1.8-0.7-3.2s0.2-2.5,0.7-3.2S318.7,212.2,319.6,212.2z M319.6,219.9c1.2,0,1.8-1.1,1.8-3.4
			c0-2.3-0.6-3.5-1.8-3.5c-0.6,0-1,0.3-1.4,0.9s-0.5,1.4-0.5,2.6c0,1.1,0.2,2,0.5,2.6S319,219.9,319.6,219.9z"/>
		<path fill="#231F20" d="M330.1,212.3l-2.7,8.3h-1.2l-2.7-8.3h1l2.3,7.2l2.3-7.2H330.1z"/>
		<path fill="#231F20" d="M336.3,220.6H332v-8.3h4.3v0.8h-3.3v2.6h3.2v0.8h-3.2v3.2h3.4V220.6z"/>
		<path fill="#231F20" d="M351.7,220.6h-1l-0.9-2.9h-2.7l-0.9,2.9h-1l2.7-8.3h1.2L351.7,220.6z M349.5,216.9l-1.1-3.4l-1.1,3.4
			H349.5z"/>
		<path fill="#231F20" d="M358.7,213.1h-2.5v7.5h-1v-7.5h-2.6v-0.8h6.1V213.1z"/>
		<path fill="#231F20" d="M371.8,213.2c-0.5-0.2-1-0.3-1.4-0.3c-0.5,0-0.9,0.1-1.2,0.3s-0.5,0.6-0.5,1c0,0.5,0.4,0.9,1.2,1.3
			c0.6,0.3,1,0.5,1.2,0.6s0.4,0.3,0.6,0.5s0.4,0.4,0.5,0.7s0.2,0.6,0.2,0.9c0,0.8-0.3,1.4-0.8,1.9s-1.2,0.7-1.9,0.7
			c-0.7,0-1.3-0.1-1.9-0.4l0.2-0.8c0.6,0.3,1.2,0.4,1.6,0.4c0.5,0,1-0.1,1.3-0.4s0.5-0.7,0.5-1.2c0-0.4-0.1-0.7-0.3-0.9
			s-0.6-0.5-1.2-0.8c-0.6-0.3-1-0.5-1.2-0.6s-0.3-0.2-0.5-0.4s-0.3-0.4-0.4-0.6s-0.1-0.5-0.1-0.7c0-0.7,0.2-1.2,0.7-1.6
			s1.1-0.6,1.9-0.6c0.6,0,1.1,0.1,1.6,0.3L371.8,213.2z"/>
		<path fill="#231F20" d="M379.5,220.6h-4.3v-8.3h4.3v0.8h-3.3v2.6h3.2v0.8h-3.2v3.2h3.4V220.6z"/>
		<path fill="#231F20" d="M387.8,220.6h-1l-0.9-2.9h-2.7l-0.9,2.9h-1l2.7-8.3h1.2L387.8,220.6z M385.6,216.9l-1.1-3.4l-1.1,3.4
			H385.6z"/>
		<path fill="#231F20" d="M401.3,220.6h-4.5v-8.3h1v7.4h3.5V220.6z"/>
		<path fill="#231F20" d="M408.3,220.6H404v-8.3h4.3v0.8h-3.3v2.6h3.2v0.8h-3.2v3.2h3.4V220.6z"/>
		<path fill="#231F20" d="M416.5,212.3l-2.7,8.3h-1.2l-2.7-8.3h1l2.3,7.2l2.3-7.2H416.5z"/>
		<path fill="#231F20" d="M422.7,220.6h-4.3v-8.3h4.3v0.8h-3.3v2.6h3.2v0.8h-3.2v3.2h3.4V220.6z"/>
		<path fill="#231F20" d="M430.1,220.6h-4.5v-8.3h1v7.4h3.5V220.6z"/>
		<path fill="#231F20" d="M442.3,217.6l-2.2,2.6l-0.5-0.5l2.1-2.5l-2.1-2.5l0.5-0.5l2.2,2.6V217.6z M444.6,217.6l-2.2,2.6l-0.5-0.5
			l2.1-2.5l-2.1-2.5l0.5-0.5l2.2,2.6V217.6z"/>
		<path fill="#231F20" d="M459.5,213.1H457v7.5h-1v-7.5h-2.6v-0.8h6.1V213.1z"/>
		<path fill="#231F20" d="M463.7,212.2c0.9,0,1.6,0.4,2.1,1.1s0.7,1.8,0.7,3.2c0,1.4-0.2,2.5-0.7,3.2s-1.2,1.1-2.1,1.1
			c-0.9,0-1.6-0.4-2.1-1.1s-0.7-1.8-0.7-3.2s0.2-2.5,0.7-3.2S462.7,212.2,463.7,212.2z M463.7,219.9c1.2,0,1.8-1.1,1.8-3.4
			c0-2.3-0.6-3.5-1.8-3.5c-0.6,0-1,0.3-1.4,0.9s-0.5,1.4-0.5,2.6c0,1.1,0.2,2,0.5,2.6S463.1,219.9,463.7,219.9z"/>
		<path fill="#231F20" d="M479.1,216.1c0.6,0.1,1,0.4,1.3,0.8s0.5,0.8,0.5,1.3c0,0.8-0.3,1.3-0.8,1.8s-1.2,0.7-2,0.7h-2.3v-8.3h2.3
			c0.8,0,1.4,0.2,1.9,0.5s0.7,0.8,0.7,1.5c0,0.4-0.1,0.7-0.4,1S479.5,215.9,479.1,216.1L479.1,216.1z M476.7,215.6h1.1
			c1.2,0,1.8-0.4,1.8-1.3c0-0.4-0.1-0.7-0.4-0.9s-0.7-0.3-1.3-0.3h-1.2V215.6z M476.7,219.7h1.1c0.6,0,1.1-0.1,1.5-0.4
			s0.6-0.7,0.6-1.2c0-0.5-0.2-0.9-0.6-1.2s-0.9-0.4-1.6-0.4h-1V219.7z"/>
		<path fill="#231F20" d="M487.5,220.6h-4.3v-8.3h4.3v0.8h-3.3v2.6h3.2v0.8h-3.2v3.2h3.4V220.6z"/>
		<path fill="#231F20" d="M502.3,220.6h-0.9v-7.1l-1.2,3.4h-0.9l-1.2-3.4v7.1h-0.9v-8.3h1.2l1.4,3.8l1.4-3.8h1.2V220.6z"/>
		<path fill="#231F20" d="M510.2,220.6h-1l-0.9-2.9h-2.7l-0.9,2.9h-1l2.7-8.3h1.2L510.2,220.6z M508,216.9l-1.1-3.4l-1.1,3.4H508z"
			/>
		<path fill="#231F20" d="M517.4,220.6h-1.2l-2.4-3.8h-1.1v3.8h-1v-8.3h2.3c0.8,0,1.4,0.2,1.9,0.6s0.7,0.9,0.7,1.6
			c0,0.5-0.2,1-0.5,1.3s-0.8,0.7-1.4,0.8L517.4,220.6z M512.7,216h1.2c0.5,0,0.9-0.1,1.2-0.4s0.5-0.6,0.5-1c0-0.9-0.6-1.4-1.7-1.4
			h-1.2V216z"/>
		<path fill="#231F20" d="M524.6,220.6h-1.2l-2.4-3.8h-1.1v3.8h-1v-8.3h2.3c0.8,0,1.4,0.2,1.9,0.6s0.7,0.9,0.7,1.6
			c0,0.5-0.2,1-0.5,1.3s-0.8,0.7-1.4,0.8L524.6,220.6z M519.9,216h1.2c0.5,0,0.9-0.1,1.2-0.4s0.5-0.6,0.5-1c0-0.9-0.6-1.4-1.7-1.4
			h-1.2V216z"/>
		<path fill="#231F20" d="M530.3,220.6h-3.8v-0.8h1.4v-6.6h-1.4v-0.8h3.8v0.8h-1.4v6.6h1.4V220.6z"/>
		<path fill="#231F20" d="M537.9,220.6h-4.3v-8.3h4.3v0.8h-3.3v2.6h3.2v0.8h-3.2v3.2h3.4V220.6z"/>
		<path fill="#231F20" d="M540.5,212.3h1.6c1.1,0,1.9,0.4,2.6,1.1s1,1.7,1,3c0,1.3-0.3,2.3-1,3s-1.5,1.1-2.5,1.1h-1.7V212.3z
			 M541.5,219.7h0.7c0.8,0,1.4-0.3,1.9-0.9s0.7-1.4,0.7-2.4c0-1-0.2-1.8-0.7-2.4s-1.1-0.9-1.9-0.9h-0.7V219.7z"/>
		<path fill="#231F20" d="M559.1,220.6h-3.8v-0.8h1.4v-6.6h-1.4v-0.8h3.8v0.8h-1.4v6.6h1.4V220.6z"/>
		<path fill="#231F20" d="M567,220.6h-1.1l-3-6.5v6.5h-1v-8.3h1.1l3,6.5v-6.5h0.9V220.6z"/>
		<path fill="#231F20" d="M581.9,213.1h-2.5v7.5h-1v-7.5h-2.6v-0.8h6.1V213.1z"/>
		<path fill="#231F20" d="M588.5,220.6h-1v-4.1h-2.8v4.1h-1v-8.3h1v3.3h2.8v-3.3h1V220.6z"/>
		<path fill="#231F20" d="M595.5,220.6h-4.3v-8.3h4.3v0.8h-3.3v2.6h3.2v0.8h-3.2v3.2h3.4V220.6z"/>
		<path fill="#231F20" d="M610.4,220.6h-0.9v-7.1l-1.2,3.4h-0.9l-1.2-3.4v7.1h-0.9v-8.3h1.2l1.4,3.8l1.4-3.8h1.2V220.6z"/>
		<path fill="#231F20" d="M614.9,212.2c0.9,0,1.6,0.4,2.1,1.1s0.7,1.8,0.7,3.2c0,1.4-0.2,2.5-0.7,3.2s-1.2,1.1-2.1,1.1
			c-0.9,0-1.6-0.4-2.1-1.1s-0.7-1.8-0.7-3.2s0.2-2.5,0.7-3.2S614,212.2,614.9,212.2z M614.9,219.9c1.2,0,1.8-1.1,1.8-3.4
			c0-2.3-0.6-3.5-1.8-3.5c-0.6,0-1,0.3-1.4,0.9s-0.5,1.4-0.5,2.6c0,1.1,0.2,2,0.5,2.6S614.3,219.9,614.9,219.9z"/>
		<path fill="#231F20" d="M624.5,218c0,1-0.2,1.7-0.6,2.1s-1,0.7-1.8,0.7c-1.6,0-2.4-0.9-2.4-2.7v-5.7h1v5.6c0,1.3,0.5,2,1.4,2
			c0.5,0,0.8-0.2,1.1-0.5s0.3-0.8,0.3-1.5v-5.6h1V218z"/>
		<path fill="#231F20" d="M631.8,220.6h-1.1l-3-6.5v6.5h-1v-8.3h1.1l3,6.5v-6.5h0.9V220.6z"/>
		<path fill="#231F20" d="M639.5,213.1H637v7.5h-1v-7.5h-2.6v-0.8h6.1V213.1z"/>
		<path fill="#231F20" d="M647,220.6h-1l-0.9-2.9h-2.7l-0.9,2.9h-1l2.7-8.3h1.2L647,220.6z M644.8,216.9l-1.1-3.4l-1.1,3.4H644.8z"
			/>
		<path fill="#231F20" d="M652.7,220.6H649v-0.8h1.4v-6.6H649v-0.8h3.8v0.8h-1.4v6.6h1.4V220.6z"/>
		<path fill="#231F20" d="M660.6,220.6h-1.1l-3-6.5v6.5h-1v-8.3h1.1l3,6.5v-6.5h0.9V220.6z"/>
		<path fill="#231F20" d="M667.1,213.2c-0.5-0.2-1-0.3-1.4-0.3c-0.5,0-0.9,0.1-1.2,0.3s-0.5,0.6-0.5,1c0,0.5,0.4,0.9,1.2,1.3
			c0.6,0.3,1,0.5,1.2,0.6s0.4,0.3,0.6,0.5s0.4,0.4,0.5,0.7s0.2,0.6,0.2,0.9c0,0.8-0.3,1.4-0.8,1.9s-1.2,0.7-1.9,0.7
			c-0.7,0-1.3-0.1-1.9-0.4l0.2-0.8c0.6,0.3,1.2,0.4,1.6,0.4c0.5,0,1-0.1,1.3-0.4s0.5-0.7,0.5-1.2c0-0.4-0.1-0.7-0.3-0.9
			s-0.6-0.5-1.2-0.8c-0.6-0.3-1-0.5-1.2-0.6s-0.3-0.2-0.5-0.4s-0.3-0.4-0.4-0.6s-0.1-0.5-0.1-0.7c0-0.7,0.2-1.2,0.7-1.6
			s1.1-0.6,1.9-0.6c0.6,0,1.1,0.1,1.6,0.3L667.1,213.2z"/>
	</g>
</g>
<g>
	<g>
		<path fill="#231F20" d="M39.1,39.6c0.9,0,1.5,0.4,2,1.1s0.7,1.8,0.7,3.2c0,1.3-0.2,2.4-0.7,3.1s-1.1,1.2-2,1.2
			c-0.9,0-1.5-0.4-2-1.1s-0.7-1.8-0.7-3.2c0-1.3,0.2-2.4,0.7-3.1S38.2,39.6,39.1,39.6z M39.1,47.3c0.6,0,1-0.3,1.3-0.8
			s0.4-1.4,0.4-2.6c0-1.2-0.1-2.1-0.4-2.6s-0.7-0.8-1.3-0.8c-0.6,0-1,0.3-1.3,0.8s-0.4,1.4-0.4,2.6c0,1.2,0.1,2.1,0.4,2.6
			S38.5,47.3,39.1,47.3z M39.1,43c0.2,0,0.5,0.1,0.6,0.3s0.3,0.4,0.3,0.6c0,0.3-0.1,0.5-0.3,0.7s-0.4,0.3-0.6,0.3
			c-0.2,0-0.4-0.1-0.6-0.3s-0.3-0.4-0.3-0.7c0-0.2,0.1-0.5,0.2-0.6S38.8,43,39.1,43z"/>
	</g>
</g>
<g>
	<g>
		<path fill="#231F20" d="M216.1,48h-4.3v-0.8h1.8v-6.4l-1.7,0.8v-1l1.8-0.9h0.8v7.5h1.6V48z"/>
	</g>
</g>
<g>
	<g>
		<path fill="#231F20" d="M393.6,48H389v-0.7c1.2-1.3,1.9-2.1,2.2-2.6s0.6-0.9,0.8-1.4s0.3-1,0.3-1.4c0-0.5-0.1-0.8-0.4-1.1
			s-0.7-0.4-1.2-0.4c-0.4,0-0.9,0.1-1.6,0.4l-0.1-0.8c0.6-0.2,1.2-0.4,1.9-0.4c0.7,0,1.3,0.2,1.8,0.6s0.7,1,0.7,1.7
			c0,0.5-0.1,1-0.3,1.5s-0.5,1-0.9,1.4s-1.1,1.3-2.1,2.4h3.5V48z"/>
	</g>
</g>
<g>
	<g>
		<path fill="#231F20" d="M567.6,43.5c0.5,0.1,0.9,0.4,1.2,0.8s0.5,0.8,0.5,1.3c0,0.7-0.3,1.3-0.8,1.8s-1.2,0.7-2,0.7
			c-0.7,0-1.2-0.1-1.8-0.4l0.2-0.8c0.5,0.3,1.1,0.4,1.6,0.4c0.5,0,0.9-0.2,1.3-0.5s0.5-0.7,0.5-1.2c0-0.5-0.2-0.9-0.6-1.2
			s-0.9-0.5-1.5-0.5h-0.3v-0.8h0.1c0.6,0,1.1-0.1,1.5-0.4s0.6-0.7,0.6-1.1c0-0.4-0.1-0.7-0.4-0.9s-0.7-0.3-1.2-0.3
			c-0.4,0-0.9,0.1-1.4,0.3l-0.1-0.8c0.5-0.2,1.1-0.4,1.6-0.4c0.7,0,1.3,0.2,1.8,0.6s0.7,0.9,0.7,1.5c0,0.4-0.1,0.8-0.4,1.2
			S568,43.4,567.6,43.5L567.6,43.5z"/>
	</g>
</g>
<g>
	<g>
		<path fill="#231F20" d="M744.4,46.1h-1V48h-1v-1.9h-3.6v-0.7l3.3-5.6h1.3v5.5h1V46.1z M742.4,45.2v-4.6l-2.6,4.6H742.4z"/>
	</g>
</g>
<g>
	<g>
		<path fill="#231F20" d="M884.9,43.1c0.3-0.1,0.5-0.1,0.8-0.1c0.8,0,1.4,0.2,1.9,0.7s0.7,1.1,0.7,1.8c0,0.8-0.3,1.4-0.8,1.9
			s-1.2,0.8-1.9,0.8c-0.7,0-1.3-0.1-1.8-0.4l0.2-0.8c0.5,0.2,1.1,0.3,1.6,0.3c0.5,0,0.9-0.2,1.2-0.5s0.5-0.8,0.5-1.4
			c0-0.6-0.1-1-0.4-1.3s-0.7-0.4-1.1-0.4c-0.3,0-0.7,0.1-1,0.2l-0.6-0.3v-3.9h3.8v0.8h-2.9V43.1z"/>
		<path fill="#231F20" d="M903.4,39.7l-2.6,4.7V48h-1v-3.5l-2.6-4.7h1.1l2,3.7l2-3.7H903.4z"/>
		<path fill="#231F20" d="M909.8,48h-4.3v-8.3h4.3v0.8h-3.3v2.6h3.2V44h-3.2v3.2h3.4V48z"/>
		<path fill="#231F20" d="M918,48h-1l-0.9-2.9h-2.7l-0.9,2.9h-1l2.7-8.3h1.2L918,48z M915.8,44.3l-1.1-3.4l-1.1,3.4H915.8z"/>
		<path fill="#231F20" d="M925.2,48H924l-2.4-3.8h-1.1V48h-1v-8.3h2.3c0.8,0,1.4,0.2,1.9,0.6s0.7,0.9,0.7,1.6c0,0.5-0.2,1-0.5,1.3
			s-0.8,0.7-1.4,0.8L925.2,48z M920.5,43.4h1.2c0.5,0,0.9-0.1,1.2-0.4s0.5-0.6,0.5-1c0-0.9-0.6-1.4-1.7-1.4h-1.2V43.4z"/>
		<path fill="#231F20" d="M930.9,40.6c-0.5-0.2-1-0.3-1.4-0.3c-0.5,0-0.9,0.1-1.2,0.3s-0.5,0.6-0.5,1c0,0.5,0.4,0.9,1.2,1.3
			c0.6,0.3,1,0.5,1.2,0.6s0.4,0.3,0.6,0.5s0.4,0.4,0.5,0.7s0.2,0.6,0.2,0.9c0,0.8-0.3,1.4-0.8,1.9s-1.2,0.7-1.9,0.7
			c-0.7,0-1.3-0.1-1.9-0.4l0.2-0.8c0.6,0.3,1.2,0.4,1.6,0.4c0.5,0,1-0.1,1.3-0.4s0.5-0.7,0.5-1.2c0-0.4-0.1-0.7-0.3-0.9
			s-0.6-0.5-1.2-0.8c-0.6-0.3-1-0.5-1.2-0.6s-0.3-0.2-0.5-0.4s-0.3-0.4-0.4-0.6s-0.1-0.5-0.1-0.7c0-0.7,0.2-1.2,0.7-1.6
			s1.1-0.6,1.9-0.6c0.6,0,1.1,0.1,1.6,0.3L930.9,40.6z"/>
	</g>
</g>
<g>
	<line fill="none" stroke="#231F20" stroke-miterlimit="10" x1="39.6" y1="57.6" x2="922.6" y2="57.6"/>
	<rect x="216.2" y="53.8" fill="none" stroke="#231F20" stroke-miterlimit="10" width="176.6" height="7.5"/>
	<rect x="39.6" y="53.8" fill="#FFFFFF" stroke="#231F20" stroke-miterlimit="10" width="176.6" height="7.5"/>
	<rect x="569.4" y="53.8" fill="none" stroke="#231F20" stroke-miterlimit="10" width="176.6" height="7.5"/>
	<rect x="392.8" y="53.8" fill="#FFFFFF" stroke="#231F20" stroke-miterlimit="10" width="176.6" height="7.5"/>
	<rect x="746" y="53.8" fill="#FFFFFF" stroke="#231F20" stroke-miterlimit="10" width="176.6" height="7.5"/>
</g>
<g>
	<g>
		<g>
			<path fill="#231F20" d="M125.1,95.4h-4.5v-0.7c1.2-1.3,1.9-2.1,2.2-2.6s0.6-0.9,0.8-1.4s0.3-1,0.3-1.4c0-0.5-0.1-0.8-0.4-1.1
				s-0.7-0.4-1.2-0.4c-0.4,0-0.9,0.1-1.6,0.4l-0.1-0.8c0.6-0.2,1.2-0.4,1.9-0.4c0.7,0,1.3,0.2,1.8,0.6s0.7,1,0.7,1.7
				c0,0.5-0.1,1-0.3,1.5s-0.5,1-0.9,1.4s-1.1,1.3-2.1,2.4h3.5V95.4z"/>
			<path fill="#231F20" d="M130.1,87c0.9,0,1.5,0.4,2,1.1s0.7,1.8,0.7,3.2c0,1.3-0.2,2.4-0.7,3.1s-1.1,1.2-2,1.2
				c-0.9,0-1.5-0.4-2-1.1s-0.7-1.8-0.7-3.2c0-1.3,0.2-2.4,0.7-3.1S129.2,87,130.1,87z M130.1,94.7c0.6,0,1-0.3,1.3-0.8
				s0.4-1.4,0.4-2.6c0-1.2-0.1-2.1-0.4-2.6s-0.7-0.8-1.3-0.8c-0.6,0-1,0.3-1.3,0.8s-0.4,1.4-0.4,2.6c0,1.2,0.1,2.1,0.4,2.6
				S129.5,94.7,130.1,94.7z M130.1,90.4c0.2,0,0.5,0.1,0.6,0.3s0.3,0.4,0.3,0.6c0,0.3-0.1,0.5-0.3,0.7s-0.4,0.3-0.6,0.3
				c-0.2,0-0.4-0.1-0.6-0.3s-0.3-0.4-0.3-0.7c0-0.2,0.1-0.5,0.2-0.6S129.8,90.4,130.1,90.4z"/>
			<path fill="#231F20" d="M139.7,95.4h-4.3v-0.8h1.8v-6.4l-1.7,0.8v-1l1.8-0.9h0.8v7.5h1.6V95.4z"/>
			<path fill="#231F20" d="M144.5,87c0.9,0,1.5,0.4,2,1.1s0.7,1.8,0.7,3.2c0,1.3-0.2,2.4-0.7,3.1s-1.1,1.2-2,1.2
				c-0.9,0-1.5-0.4-2-1.1s-0.7-1.8-0.7-3.2c0-1.3,0.2-2.4,0.7-3.1S143.6,87,144.5,87z M144.5,94.7c0.6,0,1-0.3,1.3-0.8
				s0.4-1.4,0.4-2.6c0-1.2-0.1-2.1-0.4-2.6s-0.7-0.8-1.3-0.8c-0.6,0-1,0.3-1.3,0.8s-0.4,1.4-0.4,2.6c0,1.2,0.1,2.1,0.4,2.6
				S143.9,94.7,144.5,94.7z M144.5,90.4c0.2,0,0.5,0.1,0.6,0.3s0.3,0.4,0.3,0.6c0,0.3-0.1,0.5-0.3,0.7s-0.4,0.3-0.6,0.3
				c-0.2,0-0.4-0.1-0.6-0.3s-0.3-0.4-0.3-0.7c0-0.2,0.1-0.5,0.2-0.6S144.3,90.4,144.5,90.4z"/>
		</g>
	</g>
	<g>
		<g>
			<path fill="#231F20" d="M261,95.4h-4.5v-0.7c1.2-1.3,1.9-2.1,2.2-2.6s0.6-0.9,0.8-1.4s0.3-1,0.3-1.4c0-0.5-0.1-0.8-0.4-1.1
				s-0.7-0.4-1.2-0.4c-0.4,0-0.9,0.1-1.6,0.4l-0.1-0.8c0.6-0.2,1.2-0.4,1.9-0.4c0.7,0,1.3,0.2,1.8,0.6s0.7,1,0.7,1.7
				c0,0.5-0.1,1-0.3,1.5s-0.5,1-0.9,1.4s-1.1,1.3-2.1,2.4h3.5V95.4z"/>
			<path fill="#231F20" d="M266,87c0.9,0,1.5,0.4,2,1.1s0.7,1.8,0.7,3.2c0,1.3-0.2,2.4-0.7,3.1s-1.1,1.2-2,1.2c-0.9,0-1.5-0.4-2-1.1
				s-0.7-1.8-0.7-3.2c0-1.3,0.2-2.4,0.7-3.1S265.1,87,266,87z M266,94.7c0.6,0,1-0.3,1.3-0.8s0.4-1.4,0.4-2.6c0-1.2-0.1-2.1-0.4-2.6
				s-0.7-0.8-1.3-0.8c-0.6,0-1,0.3-1.3,0.8s-0.4,1.4-0.4,2.6c0,1.2,0.1,2.1,0.4,2.6S265.5,94.7,266,94.7z M266,90.4
				c0.2,0,0.5,0.1,0.6,0.3s0.3,0.4,0.3,0.6c0,0.3-0.1,0.5-0.3,0.7s-0.4,0.3-0.6,0.3c-0.2,0-0.4-0.1-0.6-0.3s-0.3-0.4-0.3-0.7
				c0-0.2,0.1-0.5,0.2-0.6S265.8,90.4,266,90.4z"/>
			<path fill="#231F20" d="M275.6,95.4h-4.3v-0.8h1.8v-6.4l-1.7,0.8v-1l1.8-0.9h0.8v7.5h1.6V95.4z"/>
			<path fill="#231F20" d="M282.8,95.4h-4.3v-0.8h1.8v-6.4l-1.7,0.8v-1l1.8-0.9h0.8v7.5h1.6V95.4z"/>
		</g>
	</g>
	<g>
		<g>
			<path fill="#231F20" d="M402.2,95.4h-4.5v-0.7c1.2-1.3,1.9-2.1,2.2-2.6s0.6-0.9,0.8-1.4s0.3-1,0.3-1.4c0-0.5-0.1-0.8-0.4-1.1
				s-0.7-0.4-1.2-0.4c-0.4,0-0.9,0.1-1.6,0.4l-0.1-0.8c0.6-0.2,1.2-0.4,1.9-0.4c0.7,0,1.3,0.2,1.8,0.6s0.7,1,0.7,1.7
				c0,0.5-0.1,1-0.3,1.5s-0.5,1-0.9,1.4s-1.1,1.3-2.1,2.4h3.5V95.4z"/>
			<path fill="#231F20" d="M407.2,87c0.9,0,1.5,0.4,2,1.1s0.7,1.8,0.7,3.2c0,1.3-0.2,2.4-0.7,3.1s-1.1,1.2-2,1.2
				c-0.9,0-1.5-0.4-2-1.1s-0.7-1.8-0.7-3.2c0-1.3,0.2-2.4,0.7-3.1S406.3,87,407.2,87z M407.2,94.7c0.6,0,1-0.3,1.3-0.8
				s0.4-1.4,0.4-2.6c0-1.2-0.1-2.1-0.4-2.6s-0.7-0.8-1.3-0.8c-0.6,0-1,0.3-1.3,0.8s-0.4,1.4-0.4,2.6c0,1.2,0.1,2.1,0.4,2.6
				S406.6,94.7,407.2,94.7z M407.2,90.4c0.2,0,0.5,0.1,0.6,0.3s0.3,0.4,0.3,0.6c0,0.3-0.1,0.5-0.3,0.7s-0.4,0.3-0.6,0.3
				c-0.2,0-0.4-0.1-0.6-0.3s-0.3-0.4-0.3-0.7c0-0.2,0.1-0.5,0.2-0.6S406.9,90.4,407.2,90.4z"/>
			<path fill="#231F20" d="M416.8,95.4h-4.3v-0.8h1.8v-6.4l-1.7,0.8v-1l1.8-0.9h0.8v7.5h1.6V95.4z"/>
			<path fill="#231F20" d="M423.8,95.4h-4.5v-0.7c1.2-1.3,1.9-2.1,2.2-2.6s0.6-0.9,0.8-1.4s0.3-1,0.3-1.4c0-0.5-0.1-0.8-0.4-1.1
				s-0.7-0.4-1.2-0.4c-0.4,0-0.9,0.1-1.6,0.4l-0.1-0.8c0.6-0.2,1.2-0.4,1.9-0.4c0.7,0,1.3,0.2,1.8,0.6s0.7,1,0.7,1.7
				c0,0.5-0.1,1-0.3,1.5s-0.5,1-0.9,1.4s-1.1,1.3-2.1,2.4h3.5V95.4z"/>
		</g>
	</g>
	<g>
		<g>
			<path fill="#231F20" d="M538.8,95.4h-4.5v-0.7c1.2-1.3,1.9-2.1,2.2-2.6s0.6-0.9,0.8-1.4s0.3-1,0.3-1.4c0-0.5-0.1-0.8-0.4-1.1
				s-0.7-0.4-1.2-0.4c-0.4,0-0.9,0.1-1.6,0.4l-0.1-0.8c0.6-0.2,1.2-0.4,1.9-0.4c0.7,0,1.3,0.2,1.8,0.6s0.7,1,0.7,1.7
				c0,0.5-0.1,1-0.3,1.5s-0.5,1-0.9,1.4s-1.1,1.3-2.1,2.4h3.5V95.4z"/>
			<path fill="#231F20" d="M543.8,87c0.9,0,1.5,0.4,2,1.1s0.7,1.8,0.7,3.2c0,1.3-0.2,2.4-0.7,3.1s-1.1,1.2-2,1.2
				c-0.9,0-1.5-0.4-2-1.1s-0.7-1.8-0.7-3.2c0-1.3,0.2-2.4,0.7-3.1S542.9,87,543.8,87z M543.8,94.7c0.6,0,1-0.3,1.3-0.8
				s0.4-1.4,0.4-2.6c0-1.2-0.1-2.1-0.4-2.6s-0.7-0.8-1.3-0.8c-0.6,0-1,0.3-1.3,0.8s-0.4,1.4-0.4,2.6c0,1.2,0.1,2.1,0.4,2.6
				S543.3,94.7,543.8,94.7z M543.8,90.4c0.2,0,0.5,0.1,0.6,0.3s0.3,0.4,0.3,0.6c0,0.3-0.1,0.5-0.3,0.7s-0.4,0.3-0.6,0.3
				c-0.2,0-0.4-0.1-0.6-0.3s-0.3-0.4-0.3-0.7c0-0.2,0.1-0.5,0.2-0.6S543.6,90.4,543.8,90.4z"/>
			<path fill="#231F20" d="M553.4,95.4h-4.3v-0.8h1.8v-6.4l-1.7,0.8v-1l1.8-0.9h0.8v7.5h1.6V95.4z"/>
			<path fill="#231F20" d="M558.8,91c0.5,0.1,0.9,0.4,1.2,0.8s0.5,0.8,0.5,1.3c0,0.7-0.3,1.3-0.8,1.8s-1.2,0.7-2,0.7
				c-0.7,0-1.2-0.1-1.8-0.4l0.2-0.8c0.5,0.3,1.1,0.4,1.6,0.4c0.5,0,0.9-0.2,1.3-0.5s0.5-0.7,0.5-1.2c0-0.5-0.2-0.9-0.6-1.2
				s-0.9-0.5-1.5-0.5h-0.3v-0.8h0.1c0.6,0,1.1-0.1,1.5-0.4s0.6-0.7,0.6-1.1c0-0.4-0.1-0.7-0.4-0.9s-0.7-0.3-1.2-0.3
				c-0.4,0-0.9,0.1-1.4,0.3l-0.1-0.8c0.5-0.2,1.1-0.4,1.6-0.4c0.7,0,1.3,0.2,1.8,0.6s0.7,0.9,0.7,1.5c0,0.4-0.1,0.8-0.4,1.2
				S559.2,90.9,558.8,91L558.8,91z"/>
		</g>
	</g>
	<g>
		<g>
			<path fill="#231F20" d="M678.2,95.4h-4.5v-0.7c1.2-1.3,1.9-2.1,2.2-2.6s0.6-0.9,0.8-1.4s0.3-1,0.3-1.4c0-0.5-0.1-0.8-0.4-1.1
				s-0.7-0.4-1.2-0.4c-0.4,0-0.9,0.1-1.6,0.4l-0.1-0.8c0.6-0.2,1.2-0.4,1.9-0.4c0.7,0,1.3,0.2,1.8,0.6s0.7,1,0.7,1.7
				c0,0.5-0.1,1-0.3,1.5s-0.5,1-0.9,1.4s-1.1,1.3-2.1,2.4h3.5V95.4z"/>
			<path fill="#231F20" d="M683.3,87c0.9,0,1.5,0.4,2,1.1s0.7,1.8,0.7,3.2c0,1.3-0.2,2.4-0.7,3.1s-1.1,1.2-2,1.2
				c-0.9,0-1.5-0.4-2-1.1s-0.7-1.8-0.7-3.2c0-1.3,0.2-2.4,0.7-3.1S682.4,87,683.3,87z M683.3,94.7c0.6,0,1-0.3,1.3-0.8
				s0.4-1.4,0.4-2.6c0-1.2-0.1-2.1-0.4-2.6s-0.7-0.8-1.3-0.8c-0.6,0-1,0.3-1.3,0.8s-0.4,1.4-0.4,2.6c0,1.2,0.1,2.1,0.4,2.6
				S682.7,94.7,683.3,94.7z M683.3,90.4c0.2,0,0.5,0.1,0.6,0.3s0.3,0.4,0.3,0.6c0,0.3-0.1,0.5-0.3,0.7s-0.4,0.3-0.6,0.3
				c-0.2,0-0.4-0.1-0.6-0.3s-0.3-0.4-0.3-0.7c0-0.2,0.1-0.5,0.2-0.6S683,90.4,683.3,90.4z"/>
			<path fill="#231F20" d="M692.9,95.4h-4.3v-0.8h1.8v-6.4l-1.7,0.8v-1l1.8-0.9h0.8v7.5h1.6V95.4z"/>
			<path fill="#231F20" d="M700.4,93.5h-1v1.9h-1v-1.9h-3.6v-0.7l3.3-5.6h1.3v5.5h1V93.5z M698.4,92.7v-4.6l-2.6,4.6H698.4z"/>
		</g>
	</g>
	<rect x="132.1" y="102.8" fill="none" stroke="#231F20" stroke-miterlimit="10" width="139.4" height="7.5"/>
	<line fill="none" stroke="#231F20" stroke-miterlimit="10" x1="132.1" y1="106.6" x2="829.3" y2="106.6"/>
	<rect x="271.6" y="102.8" fill="#231F20" stroke="#231F20" stroke-miterlimit="10" width="139.4" height="7.5"/>
	<rect x="411" y="102.8" fill="none" stroke="#231F20" stroke-miterlimit="10" width="139.4" height="7.5"/>
	<rect x="550.5" y="102.8" fill="#231F20" stroke="#231F20" stroke-miterlimit="10" width="139.4" height="7.5"/>
	<rect x="689.9" y="102.8" fill="none" stroke="#231F20" stroke-miterlimit="10" width="139.4" height="7.5"/>
	<rect x="101.4" y="102.8" fill="#FFFFFF" stroke="#231F20" stroke-miterlimit="10" width="30.7" height="7.5"/>
	<g>
		<g>
			<path fill="#231F20" d="M815.5,95.4H811v-0.7c1.2-1.3,1.9-2.1,2.2-2.6s0.6-0.9,0.8-1.4s0.3-1,0.3-1.4c0-0.5-0.1-0.8-0.4-1.1
				s-0.7-0.4-1.2-0.4c-0.4,0-0.9,0.1-1.6,0.4l-0.1-0.8c0.6-0.2,1.2-0.4,1.9-0.4c0.7,0,1.3,0.2,1.8,0.6s0.7,1,0.7,1.7
				c0,0.5-0.1,1-0.3,1.5s-0.5,1-0.9,1.4s-1.1,1.3-2.1,2.4h3.5V95.4z"/>
			<path fill="#231F20" d="M820.5,87c0.9,0,1.5,0.4,2,1.1s0.7,1.8,0.7,3.2c0,1.3-0.2,2.4-0.7,3.1s-1.1,1.2-2,1.2
				c-0.9,0-1.5-0.4-2-1.1s-0.7-1.8-0.7-3.2c0-1.3,0.2-2.4,0.7-3.1S819.6,87,820.5,87z M820.5,94.7c0.6,0,1-0.3,1.3-0.8
				s0.4-1.4,0.4-2.6c0-1.2-0.1-2.1-0.4-2.6s-0.7-0.8-1.3-0.8c-0.6,0-1,0.3-1.3,0.8s-0.4,1.4-0.4,2.6c0,1.2,0.1,2.1,0.4,2.6
				S820,94.7,820.5,94.7z M820.5,90.4c0.2,0,0.5,0.1,0.6,0.3s0.3,0.4,0.3,0.6c0,0.3-0.1,0.5-0.3,0.7s-0.4,0.3-0.6,0.3
				c-0.2,0-0.4-0.1-0.6-0.3s-0.3-0.4-0.3-0.7c0-0.2,0.1-0.5,0.2-0.6S820.3,90.4,820.5,90.4z"/>
			<path fill="#231F20" d="M830.1,95.4h-4.3v-0.8h1.8v-6.4l-1.7,0.8v-1l1.8-0.9h0.8v7.5h1.6V95.4z"/>
			<path fill="#231F20" d="M833.9,90.5c0.3-0.1,0.5-0.1,0.8-0.1c0.8,0,1.4,0.2,1.9,0.7s0.7,1.1,0.7,1.8c0,0.8-0.3,1.4-0.8,1.9
				s-1.2,0.8-1.9,0.8c-0.7,0-1.3-0.1-1.8-0.4l0.2-0.8c0.5,0.2,1.1,0.3,1.6,0.3c0.5,0,0.9-0.2,1.2-0.5s0.5-0.8,0.5-1.4
				c0-0.6-0.1-1-0.4-1.3s-0.7-0.4-1.1-0.4c-0.3,0-0.7,0.1-1,0.2l-0.6-0.3v-3.9h3.8V88h-2.9V90.5z"/>
		</g>
	</g>
</g>
<g>
	<g>
		<g>
			<path fill="#231F20" d="M168.6,144.7h-4.3v-0.8h1.8v-6.4l-1.7,0.8v-1l1.8-0.9h0.8v7.5h1.6V144.7z"/>
			<path fill="#231F20" d="M175.8,144.7h-4.3v-0.8h1.8v-6.4l-1.7,0.8v-1l1.8-0.9h0.8v7.5h1.6V144.7z"/>
			<path fill="#231F20" d="M180.6,143.3c0.2,0,0.4,0.1,0.5,0.2s0.2,0.3,0.2,0.5c0,0.2-0.1,0.4-0.2,0.5s-0.3,0.2-0.5,0.2
				c-0.2,0-0.4-0.1-0.5-0.2s-0.2-0.3-0.2-0.5s0.1-0.4,0.2-0.5S180.4,143.3,180.6,143.3z"/>
			<path fill="#231F20" d="M190.2,144.7h-4.3v-0.8h1.8v-6.4l-1.7,0.8v-1l1.8-0.9h0.8v7.5h1.6V144.7z"/>
			<path fill="#231F20" d="M194,139.7c0.3-0.1,0.5-0.1,0.8-0.1c0.8,0,1.4,0.2,1.9,0.7s0.7,1.1,0.7,1.8c0,0.8-0.3,1.4-0.8,1.9
				s-1.2,0.8-1.9,0.8c-0.7,0-1.3-0.1-1.8-0.4l0.2-0.8c0.5,0.2,1.1,0.3,1.6,0.3c0.5,0,0.9-0.2,1.2-0.5s0.5-0.8,0.5-1.4
				c0-0.6-0.1-1-0.4-1.3s-0.7-0.4-1.1-0.4c-0.3,0-0.7,0.1-1,0.2l-0.6-0.3v-3.9h3.8v0.8H194V139.7z"/>
			<path fill="#231F20" d="M202.2,143.3c0.2,0,0.4,0.1,0.5,0.2s0.2,0.3,0.2,0.5c0,0.2-0.1,0.4-0.2,0.5s-0.3,0.2-0.5,0.2
				c-0.2,0-0.4-0.1-0.5-0.2s-0.2-0.3-0.2-0.5s0.1-0.4,0.2-0.5S202,143.3,202.2,143.3z"/>
			<path fill="#231F20" d="M211.8,144.7h-4.3v-0.8h1.8v-6.4l-1.7,0.8v-1l1.8-0.9h0.8v7.5h1.6V144.7z"/>
			<path fill="#231F20" d="M219.4,142.8h-1v1.9h-1v-1.9h-3.6V142l3.3-5.6h1.3v5.5h1V142.8z M217.4,141.9v-4.6l-2.6,4.6H217.4z"/>
		</g>
	</g>
	<g>
		<line fill="none" stroke="#231F20" stroke-miterlimit="10" x1="182" y1="153.8" x2="780.2" y2="153.8"/>
		<rect x="233.2" y="150.1" fill="#FFFFFF" stroke="#231F20" stroke-miterlimit="10" width="50.3" height="7.5"/>
		<rect x="332.6" y="150.1" fill="#FFFFFF" stroke="#231F20" stroke-miterlimit="10" width="50.3" height="7.5"/>
		<rect x="531.2" y="150.1" fill="#FFFFFF" stroke="#231F20" stroke-miterlimit="10" width="50.3" height="7.5"/>
		<rect x="630.6" y="150.1" fill="#FFFFFF" stroke="#231F20" stroke-miterlimit="10" width="50.3" height="7.5"/>
		<rect x="729.9" y="150.1" fill="#FFFFFF" stroke="#231F20" stroke-miterlimit="10" width="50.3" height="7.5"/>
		<rect x="182" y="150.1" fill="none" stroke="#231F20" stroke-miterlimit="10" width="598.2" height="7.5"/>
		<rect x="431.9" y="150.1" fill="#FFFFFF" stroke="#231F20" stroke-miterlimit="10" width="50.3" height="7.5"/>
	</g>
	<g>
		<g>
			<path fill="#231F20" d="M746.8,144.7h-4.3v-0.8h1.8v-6.4l-1.7,0.8v-1l1.8-0.9h0.8v7.5h1.6V144.7z"/>
			<path fill="#231F20" d="M751.6,136.2c0.9,0,1.5,0.4,2,1.1s0.7,1.8,0.7,3.2c0,1.3-0.2,2.4-0.7,3.1s-1.1,1.2-2,1.2
				c-0.9,0-1.5-0.4-2-1.1s-0.7-1.8-0.7-3.2c0-1.3,0.2-2.4,0.7-3.1S750.7,136.2,751.6,136.2z M751.6,144c0.6,0,1-0.3,1.3-0.8
				s0.4-1.4,0.4-2.6c0-1.2-0.1-2.1-0.4-2.6s-0.7-0.8-1.3-0.8c-0.6,0-1,0.3-1.3,0.8s-0.4,1.4-0.4,2.6c0,1.2,0.1,2.1,0.4,2.6
				S751.1,144,751.6,144z M751.6,139.7c0.2,0,0.5,0.1,0.6,0.3s0.3,0.4,0.3,0.6c0,0.3-0.1,0.5-0.3,0.7s-0.4,0.3-0.6,0.3
				c-0.2,0-0.4-0.1-0.6-0.3s-0.3-0.4-0.3-0.7c0-0.2,0.1-0.5,0.2-0.6S751.4,139.7,751.6,139.7z"/>
			<path fill="#231F20" d="M758.8,143.3c0.2,0,0.4,0.1,0.5,0.2s0.2,0.3,0.2,0.5c0,0.2-0.1,0.4-0.2,0.5s-0.3,0.2-0.5,0.2
				c-0.2,0-0.4-0.1-0.5-0.2s-0.2-0.3-0.2-0.5s0.1-0.4,0.2-0.5S758.6,143.3,758.8,143.3z"/>
			<path fill="#231F20" d="M766,136.2c0.9,0,1.5,0.4,2,1.1s0.7,1.8,0.7,3.2c0,1.3-0.2,2.4-0.7,3.1s-1.1,1.2-2,1.2
				c-0.9,0-1.5-0.4-2-1.1s-0.7-1.8-0.7-3.2c0-1.3,0.2-2.4,0.7-3.1S765.1,136.2,766,136.2z M766,144c0.6,0,1-0.3,1.3-0.8
				s0.4-1.4,0.4-2.6c0-1.2-0.1-2.1-0.4-2.6s-0.7-0.8-1.3-0.8c-0.6,0-1,0.3-1.3,0.8s-0.4,1.4-0.4,2.6c0,1.2,0.1,2.1,0.4,2.6
				S765.5,144,766,144z M766,139.7c0.2,0,0.5,0.1,0.6,0.3s0.3,0.4,0.3,0.6c0,0.3-0.1,0.5-0.3,0.7s-0.4,0.3-0.6,0.3
				c-0.2,0-0.4-0.1-0.6-0.3s-0.3-0.4-0.3-0.7c0-0.2,0.1-0.5,0.2-0.6S765.8,139.7,766,139.7z"/>
			<path fill="#231F20" d="M773.8,140.2c0.5,0.1,0.9,0.4,1.2,0.8s0.5,0.8,0.5,1.3c0,0.7-0.3,1.3-0.8,1.8s-1.2,0.7-2,0.7
				c-0.7,0-1.2-0.1-1.8-0.4l0.2-0.8c0.5,0.3,1.1,0.4,1.6,0.4c0.5,0,0.9-0.2,1.3-0.5s0.5-0.7,0.5-1.2c0-0.5-0.2-0.9-0.6-1.2
				s-0.9-0.5-1.5-0.5h-0.3v-0.8h0.1c0.6,0,1.1-0.1,1.5-0.4s0.6-0.7,0.6-1.1c0-0.4-0.1-0.7-0.4-0.9s-0.7-0.3-1.2-0.3
				c-0.4,0-0.9,0.1-1.4,0.3l-0.1-0.8c0.5-0.2,1.1-0.4,1.6-0.4c0.7,0,1.3,0.2,1.8,0.6s0.7,0.9,0.7,1.5c0,0.4-0.1,0.8-0.4,1.2
				S774.2,140.1,773.8,140.2L773.8,140.2z"/>
			<path fill="#231F20" d="M780.4,143.3c0.2,0,0.4,0.1,0.5,0.2s0.2,0.3,0.2,0.5c0,0.2-0.1,0.4-0.2,0.5s-0.3,0.2-0.5,0.2
				c-0.2,0-0.4-0.1-0.5-0.2s-0.2-0.3-0.2-0.5s0.1-0.4,0.2-0.5S780.2,143.3,780.4,143.3z"/>
			<path fill="#231F20" d="M790,144.7h-4.3v-0.8h1.8v-6.4l-1.7,0.8v-1l1.8-0.9h0.8v7.5h1.6V144.7z"/>
			<path fill="#231F20" d="M793.8,139.7c0.3-0.1,0.5-0.1,0.8-0.1c0.8,0,1.4,0.2,1.9,0.7s0.7,1.1,0.7,1.8c0,0.8-0.3,1.4-0.8,1.9
				s-1.2,0.8-1.9,0.8c-0.7,0-1.3-0.1-1.8-0.4l0.2-0.8c0.5,0.2,1.1,0.3,1.6,0.3c0.5,0,0.9-0.2,1.2-0.5s0.5-0.8,0.5-1.4
				c0-0.6-0.1-1-0.4-1.3s-0.7-0.4-1.1-0.4c-0.3,0-0.7,0.1-1,0.2l-0.6-0.3v-3.9h3.8v0.8h-2.9V139.7z"/>
		</g>
	</g>
</g>
</svg>
