<?xml version="1.0" encoding="utf-8"?>
<!-- Generator: Adobe Illustrator 17.1.0, SVG Export Plug-In . SVG Version: 6.00 Build 0)  -->
<!DOCTYPE svg PUBLIC "-//W3C//DTD SVG 1.1//EN" "http://www.w3.org/Graphics/SVG/1.1/DTD/svg11.dtd">
<svg version="1.1" id="Layer_1" xmlns="http://www.w3.org/2000/svg" xmlns:xlink="http://www.w3.org/1999/xlink" x="0px" y="0px"
	 viewBox="0 0 32.417 50.252" style="enable-background:new 0 0 32.417 50.252;" xml:space="preserve">
<style type="text/css">
	.st0{fill:#FFFFFF;}
</style>
<g>
	<title>Layer 1</title>
	<path class="st0" d="M30.292,15.906c-0.07-2.934-0.909-5.183-2.125-7.086C27,6.995,25.465,5.448,23.484,4.289
		c-2.424-1.418-5.844-2.346-9.491-1.797C9.534,3.165,6.21,5.724,4.225,8.845c-1.206,1.898-2.043,4.218-2.1,7.112
		c-0.059,2.961,0.863,5.244,2,7.212c0.567,0.985,1.078,1.987,1.67,2.936c1.772,2.843,3.687,5.548,5.34,8.479
		c2.228,3.951,4.068,8.214,5.112,13.337c1.509-7.772,4.957-13.444,8.629-19.006c1.233-1.867,2.461-3.733,3.442-5.77
		c0.502-1.043,1.066-2.021,1.418-3.189C30.082,18.8,30.328,17.409,30.292,15.906z M16.256,26.342
		c-5.565,0-10.076-4.511-10.076-10.076c0-5.564,4.511-10.075,10.076-10.075c5.565,0,10.076,4.511,10.076,10.075
		C26.331,21.831,21.82,26.342,16.256,26.342z"/>
</g>
</svg>
