<?xml version="1.0" encoding="utf-8"?>
<!-- Generator: Adobe Illustrator 17.1.0, SVG Export Plug-In . SVG Version: 6.00 Build 0)  -->
<!DOCTYPE svg PUBLIC "-//W3C//DTD SVG 1.1//EN" "http://www.w3.org/Graphics/SVG/1.1/DTD/svg11.dtd">
<svg version="1.1" id="Layer_1" xmlns="http://www.w3.org/2000/svg" xmlns:xlink="http://www.w3.org/1999/xlink" x="0px" y="0px"
	 viewBox="0 0 110.185 85.195" style="enable-background:new 0 0 110.185 85.195;" xml:space="preserve">
<style type="text/css">
	.st0{fill:#FFFFFF;}
</style>
<g>
	<polygon class="st0" points="50.345,14.565 50.684,14.483 51.212,14.066 51.54,13.891 51.536,13.808 51.517,13.747 51.444,13.628 
		51.351,13.614 51.244,13.684 51.12,13.726 50.967,13.626 50.802,13.766 50.441,13.889 50.292,14.024 50.24,14.16 50.216,14.339 
		50.243,14.498 	"/>
	<polygon class="st0" points="107.896,71.37 108.084,71.359 108.289,71.27 108.655,70.972 108.904,70.83 108.949,70.819 
		108.996,70.791 109.038,70.718 107.938,70.858 107.696,70.972 107.626,71.195 107.716,71.323 	"/>
	<polygon class="st0" points="10.326,38.628 10.469,38.746 10.66,38.999 10.888,39.227 11.13,39.276 11.851,38.127 11.908,37.89 
		11.785,37.714 11.425,37.59 11.207,37.484 10.975,37.507 10.731,37.575 10.473,37.593 10.498,37.868 10.313,38.503 	"/>
	<polygon class="st0" points="51.923,13.49 51.907,13.71 52.017,13.89 52.141,13.859 52.542,13.493 52.79,13.392 53.098,13.149 
		53.375,12.845 53.577,12.498 53.617,12.45 53.64,12.391 53.64,12.299 53.451,12.309 53.309,12.394 53.071,12.698 52.995,12.394 
		52.822,12.532 52.498,13.096 52.402,12.976 52.439,12.933 52.455,12.931 52.473,12.914 52.498,12.831 52.337,12.832 52.201,12.873 
		52.092,12.957 52.016,13.095 51.983,13.083 51.922,13.071 51.836,13.071 51.727,13.094 51.727,13.24 51.912,13.306 	"/>
	<path class="st0" d="M81.618,76.373l0.01-0.472l-0.199-1.577l0.057-0.805l-0.019-0.329l-0.123-0.318l-0.207-0.252l-0.221-0.207
		l-0.176-0.247l-0.101-0.625l-0.065-0.152l-0.039-0.159l0.039-0.261l0.086-0.156l0.14-0.147l0.26-0.203l0.029,0.37l-0.115,0.304
		l-0.05,0.312l0.228,0.402l0.461,0.418l0.164,0.19l0.138,0.286l0.148,0.635l0.052,0.695l-0.009,1.508l-0.043,0.375l-0.201,0.757
		l-0.118,0.762l-0.327,0.756l-0.072,0.381l-0.089,0.267L80.453,80.3l-0.104,0.349l-0.051,0.378l-0.013,0.403l0.332-0.246
		l0.444-1.081l0.28-0.428l0.391-0.206l0.504-0.109l0.51-0.015l0.409,0.076l-0.056-0.175l-0.188-0.353l-0.04-0.16l0.07-0.165
		l0.165-0.023l0.162,0.011l0.076-0.076l0.074-0.334l0.182-0.295l0.614-0.678l0.136-0.109l0.163-0.033l0.303-0.003l0.036-0.072
		l0.296-0.428l0.072-0.185l-0.03-0.083l-0.136-0.11l0.14-0.128l0.039-0.023l-0.045-0.154l-0.073-0.159l-0.043-0.061l-0.032-0.03
		l-0.067-0.045l-0.046-0.054l-0.674-1.075l-0.072-0.126l0.195-0.131c0.972-0.603,1.941-1.208,2.911-1.814l0.221-0.166l-0.207-0.304
		c-0.213-0.371-0.424-0.744-0.635-1.118c0.299-4.706,0.597-9.413,0.894-14.12l-0.371-0.458c1.102-4.112,2.205-8.23,3.308-12.342
		l0.231-0.301c-0.122-0.386-0.248-0.769-0.374-1.154l0.152-0.668l0.036-0.309c0.094-4.371,0.184-8.744,0.271-13.114l-0.102-0.154
		l-0.132-0.127l-0.073-0.05l-0.112-0.165l-0.201-0.691l-0.058-0.107l-0.079-0.083l-0.104-0.047l-0.221-0.05l-0.107-0.004
		l-0.099,0.009l-0.093,0.025l-0.083,0.042l-0.07,0.064l-0.056,0.088l-0.043,0.099l-0.065,0.334l-0.043,0.106l-0.06,0.086
		l-0.064,0.075l-0.153,0.115l-0.155,0.069l-0.058,0.015l-0.024-0.01l-0.029-0.044l-0.1-0.192l-0.076-0.22l-0.023-0.236l-0.003-0.414
		l0.023-0.215l0.039-0.167l0.731-1.905l0.043-0.208l0.026-0.403l-0.007-0.201l-0.023-0.154l-0.036-0.089l-0.252-0.466l-0.019-0.116
		l0.013-0.116l0.084-0.301l0.032-0.252l-0.003-0.15l-0.014-0.121l-0.029-0.093l-0.04-0.08l-0.106-0.162l-0.061-0.162l-0.063-0.244
		l-0.129-0.841l-0.014-0.295l0.019-0.527l-0.022-0.166l-0.032-0.129l-0.043-0.083l-0.179-0.242L88.2,18.836l-0.064-0.17v-0.133
		l0.032-0.118l0.165-0.283l0.483-1.557l0.055-0.26l0.043-0.41l0.024-0.109l0.05-0.097l0.058-0.089l0.142-0.14l0.152-0.117
		l0.162-0.097l0.152-0.112l0.069-0.14l0.056-0.208l0.047-0.415L89.831,14l-0.023-0.197l-0.197-0.869l-0.007-0.158l0.007-0.139
		l0.036-0.115l0.042-0.11l0.269-0.511l0.086-0.232l0.069-0.324l0.042-0.284l0.008-0.183l-0.008-0.183l-0.017-0.116l-0.074-0.285
		l-0.135-0.308l-0.595-1.01l-0.193-0.429l-0.042-0.165l-0.107-0.706l-0.021-0.43l0.014-0.113l0.023-0.117l0.228-0.747l0.024-0.229
		l0.022-0.44l0.046-0.237l0.128-0.399l0.047-0.18l0.045-0.28l0.011-0.165l-0.003-0.133l-0.014-0.098l-0.032-0.088l-0.04-0.089
		l-0.26-0.292l-0.067-0.093l-0.064-0.111l-0.057-0.17L89,3.134l-0.007-0.12l0.023-0.228l0.023-0.117l0.078-0.246l0.05-0.115
		l0.231-0.387l0.065-0.129l0.05-0.162l0.053-0.259l0.007-0.155L89.56,1.084l-0.073-0.288l-0.069-0.453l-0.056-0.235
		c-6.25,0.043-12.498,0.086-18.748,0.129l-0.228-0.02L69.979,0.22L68.212,0l-0.252,0.014l-0.241,0.082l-0.507,0.345l-0.816,0.301
		L66.17,0.868l-0.612,0.488l-0.235,0.108l-0.756,0.203L62.61,2.871c-1.993,1.84-3.989,3.678-5.987,5.515l-0.766,1.056l-0.509,0.599
		l-0.001,0.001l0.001,0.001l0.178,0.288l0.091,0.356l0.03,0.346l-0.145,0.269l-0.899,0.6l-0.02,0.064l-0.014,0.111l-0.02,0.123
		l-0.052,0.098l-0.053,0.036l-0.728,0.301l-0.075,0.128l-0.133,0.181l-1.812,1.595l-1.806,0.825l-2.424,1.771l-0.122,0.278
		l0.076,0.415l0.188,0.134l0.248,0.075l0.248,0.24l0.069,0.216l-0.036,0.151l-0.053,0.128l0.02,0.152l0.102,0.108l0.126,0.019
		l0.106-0.091l0.046-0.22l0.132-0.259l0.907-0.454l0.122,0.264l0.555-0.106l0.195,0.213l-0.099,0.095l-0.04,0.065l-0.06,0.248
		l0.106-0.115l0.116-0.083l0.126-0.05l0.139-0.015l-0.086,0.249l-0.162,0.259l-0.195,0.202l-0.367,0.185l-0.238,0.227l-0.145,0.226
		l0.086,0.104h0.867l0.258-0.083l0.383-0.362l0.221-0.082l0.231,0.063l0.102,0.161l-0.033,0.216l-0.161,0.231l-0.212,0.112
		l-0.459,0.083l-0.185,0.188l-0.1,0.29l-0.017,0.232l-0.056,0.24l-0.218,0.304l-0.606,0.515l-0.155,0.273l-0.38-0.273l0.069-0.122
		l0.129-0.391l-0.688,0.336l-0.186,0.179l-0.159,0.306l0.083,0.135l0.205,0.098l0.218,0.202l0.079,0.094l0.178,0.143l0.069,0.086
		l0.043,0.142l0.003,0.146l0.017,0.152l0.185,0.369l0.126,0.527l0.093,0.241l-0.129,0.371l-0.021,0.439l0.054,0.462l0.096,0.443
		l0.119-0.267l0.133-0.183l0.152-0.055l0.179,0.112l-0.593,0.864l-0.069,0.423l0.383,0.285l-0.271,0.255l-0.542,0.668L48.727,28.7
		l-0.94,0.198l-0.36-0.068l-0.578-0.224l-0.249,0.042l-0.724,0.743l-0.269,0.208l-1.456,0.705l-0.532,0.39l-0.483,0.487
		l-0.628,1.199l-0.334-0.236l-0.198-0.05l-0.086,0.213l-0.073,0.08l-0.899,0.411l-1.436,0.306l-0.073,0.053l-0.086,0.171
		L39.32,33.47l0.013,0.115l-0.02,0.095l-0.053,0.12l0.003,0.058l-0.02,0.037l-0.129,0.045l-0.142,0.018l-0.129-0.041l-0.109-0.093
		l-0.096-0.144l0.033-0.069l0.069-0.191l-5.345-0.261l-0.638,0.136l-1.75,0.648l-0.631-0.004l-0.575-0.273l-0.998-0.908
		l-0.069-0.031l-0.311-0.085l-0.003-0.205l-0.347-0.169l-4.987-0.943l-1.677,0.273l-2.136-0.312l-4.31,0.661l-0.902,0.447
		l-1.505,0.26l-1.793,0.712l-0.952,0.169l0.063,0.331l0.073,1.712l-0.01,0.207l-0.031,0.245L9.849,36.19l-0.083,0.154l-0.06,0.193
		l0.007,0.272l0.001,0.005l0.551,0.37l1.551,0.187l0.377,0.478l-0.069,0.423l-0.489,0.518L11.52,39.22l0.06,0.166l0.262,0.241
		l0.06,0.111l0.102,0.835l0.076,0.208l0.298,0.57l0.076,0.242l0.025,0.163v0.44l-0.045,0.454l-0.137,0.337l-0.212,0.248
		l-0.282,0.196l-1.088,0.489l-0.519,0.326l-0.39,0.483l-0.294,0.691l-0.221,0.332l-0.297,0.138l-0.064,0.082l-0.231,0.506
		l-0.165,0.278l-0.076,0.077l-0.182,0.101l-0.919,0.28l-0.288,0.404l-0.735,0.483l-0.691,0.288l-0.145,0.087l-0.096,0.119
		l-0.119,0.176L5.14,48.932l-0.413,0.21l-0.655,0.89l-0.78,0.436l-0.226,0.262l-0.241,0.223l-0.949,0.36L0.831,52.15l-0.393,0.188
		l-0.281,0.234L0,52.636v5.029c20.554,0.013,41.107,0.03,61.661,0.046l-0.008,0.251l0.335,0.257l0.434,0.207l0.299,0.207
		l0.083,0.345l0.028,0.467l0.082,0.414l0.23,0.177l0.77-0.128l0.175,0.06l0.304,0.263l0.38,0.139l0.199,0.348l0.136,0.079
		l0.174,0.072l-0.056,0.172l-0.321,0.403l0.289,0.158l0.246,0.088l0.167,0.167l0.061,0.407l-0.043,0.175l-0.19,0.159l-0.043,0.174
		l0.19,0.705v0.386l-0.086,0.959l0.039,0.192l0.176,0.174l0.704,1.526l0.19,0.289l0.238,0.208l0.62,0.155l0.172,0.174l0.139,0.207
		l0.195,0.178l0.339,0.072l0.681-0.044l0.271,0.167l0.181,0.163l0.147,0.002l0.136-0.067l0.16-0.043l0.108,0.061l0.071,0.144
		l0.11,0.301l0.118,0.18l0.213,0.398l0.082,0.368c2.757,1.69,5.516,3.377,8.277,5.061C79.778,75.254,80.697,75.814,81.618,76.373z
		 M71.586,47.161v-2.306l1.579-1.605h1.188l1.935,1.935l1.935-1.935h1.188l1.579,1.605v2.306l-4.702,4.702L71.586,47.161z"/>
	<path class="st0" d="M96.526,80.69l-0.734,0.194c-0.115,0.075-0.228,0.152-0.343,0.226l-0.588,0.179l-0.195,0.025l-0.188,0.078
		l-0.411,0.382l-0.214,0.155l-0.912,0.347l-1.359,0.263l-0.464,0.206l-0.467,0.036l-0.38-0.093l0.086,0.225l0.496-0.024l1.354-0.273
		l1.485-0.515l0.463-0.24l0.228-0.045l0.915-0.56l1.314-0.42l0.203-0.023l0.167-0.15l0.506-0.239v-0.11l-0.235,0.036L96.526,80.69z"
		/>
	<polygon class="st0" points="109.938,74.699 109.557,74.661 109.276,74.708 109.329,74.898 109.329,75.012 109.051,74.964 
		108.844,74.858 108.686,74.897 108.567,75.273 108.299,75.179 108.034,75.316 107.506,75.766 106.974,76.003 106.679,76.066 
		106.555,75.965 106.487,75.77 106.036,75.079 105.84,75.006 105.69,75.226 105.6,75.579 105.594,75.901 105.073,75.342 
		104.881,75.226 104.752,75.346 104.689,75.541 104.694,75.64 104.524,75.697 104.147,75.904 103.973,75.904 103.897,75.77 
		103.829,75.563 103.716,75.433 103.499,75.528 103.644,75.883 103.431,76.095 103.07,76.26 102.299,76.881 102.05,77.138 
		102.015,77.344 102.04,77.569 101.827,77.74 101.505,77.858 101.204,77.926 100.899,77.876 100.619,77.747 100.346,77.704 
		100.057,77.926 99.936,77.826 99.797,77.777 99.651,77.769 99.494,77.786 99.631,77.555 99.884,77.306 100.168,77.111 
		100.519,76.992 100.629,76.892 100.817,76.657 100.853,76.587 100.943,76.365 101.016,76.282 101.081,76.266 101.238,76.294 
		101.301,76.281 101.698,75.947 101.83,75.901 101.858,76.02 101.972,76.249 102.097,76.382 102.157,76.217 102.128,75.985 
		102.085,75.798 102.103,75.62 102.264,75.413 102.393,75.355 102.692,75.355 102.834,75.276 102.724,75.224 102.624,75.148 
		102.534,75.041 102.453,74.897 103.41,73.99 103.957,73.661 104.165,74.006 104.35,73.937 104.571,73.79 104.756,73.599 
		104.827,73.39 104.752,73.226 104.575,73.131 104.357,73.101 104.165,73.127 103.409,73.505 103.198,73.68 102.86,74.09 
		102.65,74.258 102.022,74.436 101.719,74.578 101.461,75.045 100.638,75.414 99.754,76.278 99.443,76.394 97.651,76.769 
		95.464,76.657 93.084,76.657 93.157,76.857 93.12,76.982 92.991,77.042 92.808,77.032 92.886,76.655 92.685,76.582 92.374,76.672 
		92.132,76.786 92.195,77.091 92.039,77.378 91.772,77.583 91.131,77.781 90.982,77.788 90.867,77.747 90.589,77.585 90.463,77.552 
		90.176,77.513 88.968,77.057 88.668,77.057 88.551,77.202 88.795,77.552 88.977,77.288 89.187,77.399 89.321,77.677 89.269,77.931 
		89.095,77.933 88.846,77.827 88.594,77.77 88.401,77.931 88.24,77.796 88.119,77.667 88.25,77.324 88.007,77.094 87.656,77.086 
		87.452,77.414 87.498,77.606 87.723,77.91 87.736,78.052 87.625,78.132 87.274,77.949 87.077,77.928 87.113,77.842 87.162,77.788 
		86.426,77.596 85.645,77.808 85.171,78.389 85.356,79.302 85.155,79.327 84.922,79.063 84.67,78.696 84.394,78.415 84.223,78.549 
		84.067,78.768 84.044,78.963 84.498,79.149 84.548,79.363 84.462,79.578 84.302,79.677 84.198,79.563 84.093,79.324 83.946,79.135 
		83.729,79.165 83.636,79.339 83.673,79.827 83.632,80.052 83.309,79.81 82.855,79.682 82.456,79.767 82.3,80.173 81.645,80.017 
		81.263,80.259 80.665,81.428 80.595,81.514 80.451,81.6 80.382,81.68 80.358,81.729 80.311,81.873 80.286,81.927 79.892,82.422 
		79.822,82.562 79.871,82.989 80.274,83.456 80.202,83.824 80.428,83.837 81.149,83.688 81.235,83.641 81.404,83.495 81.533,83.438 
		81.708,83.446 81.837,83.509 81.954,83.502 82.102,83.314 81.925,83.068 81.837,82.996 81.721,82.94 81.721,82.817 82.109,82.535 
		82.327,82.46 82.631,82.43 82.912,82.473 83.286,82.589 83.557,82.749 83.532,82.942 83.607,83.055 83.626,83.107 83.633,83.19 
		83.364,83.211 81.492,83.916 81.24,84.078 81.707,84.173 83.68,83.568 86.205,83.568 86.205,83.441 85.83,83.368 84.782,83.493 
		84.483,83.318 84.565,83.037 84.955,82.951 85.741,82.944 87.263,82.43 88.692,82.318 88.992,82.207 89.511,81.882 90.409,81.682 
		90.559,81.602 90.765,81.394 90.897,81.315 91.145,81.312 91.761,81.515 92.086,81.568 92.278,81.489 92.281,81.307 92.246,81.097 
		92.324,80.936 92.5,80.896 92.667,80.949 92.836,81.025 92.998,81.071 93.164,81.051 93.768,80.894 93.948,80.733 94.091,80.694 
		94.993,80.658 95.289,80.572 95.634,80.355 95.803,80.321 96.135,80.532 96.294,80.572 96.593,80.512 96.8,80.351 96.861,80.108 
		96.719,79.809 97.211,79.83 98.771,79.608 99.105,79.629 98.974,79.785 98.71,79.9 98.019,80.068 97.933,80.097 97.885,80.155 
		97.915,80.254 97.997,80.325 98.061,80.292 98.121,80.223 98.197,80.184 98.336,80.173 99.771,79.571 100.651,79.396 101.2,79.055 
		101.361,78.913 101.353,78.744 101.258,78.566 101.225,78.377 101.281,78.227 101.445,78.167 101.802,78.203 101.963,78.318 
		101.95,78.517 101.778,78.806 102.049,78.763 102.542,78.485 103.019,78.378 103.797,78.051 105.097,77.164 105.973,76.917 
		106.989,76.398 107.931,76.167 109.644,75.159 109.883,75.064 110.085,74.949 110.185,74.773 	"/>
	<polygon class="st0" points="90.717,82.506 90.714,82.453 90.727,82.428 90.791,82.43 90.791,82.318 90.527,82.417 89.65,82.43 
		89.493,82.464 89.4,82.506 89.172,82.681 88.841,82.803 88.739,82.878 88.541,82.966 86.509,83.314 86.822,83.525 88.829,83.121 
		89.646,82.679 90.7,82.564 	"/>
	<polygon class="st0" points="78.965,82.635 78.787,82.742 78.567,82.817 78.255,82.797 78.041,82.732 77.876,82.775 77.712,83.076 
		77.66,83.353 77.632,83.927 77.533,84.198 77.439,84.271 77.299,84.327 77.151,84.414 77.036,84.575 77.014,84.7 77.036,85.195 
		78.697,84.323 79.388,83.631 79.434,82.679 79.167,82.583 	"/>
	<polygon class="st0" points="49.079,19.741 49.264,19.503 49.436,19.071 49.483,18.851 49.324,18.837 49.083,18.94 48.874,19.071 
		48.622,19.306 48.536,19.514 48.579,20.136 	"/>
</g>
</svg>
